<?xml version="1.0" encoding="UTF-8" standalone="no"?>
<!-- Created with Inkscape (http://www.inkscape.org/) -->

<svg
   width="159.49959mm"
   height="97.785202mm"
   viewBox="0 0 159.49959 97.785202"
   version="1.1"
   id="svg1"
   xml:space="preserve"
   sodipodi:docname="ASL.svg"
   xmlns:inkscape="http://www.inkscape.org/namespaces/inkscape"
   xmlns:sodipodi="http://sodipodi.sourceforge.net/DTD/sodipodi-0.dtd"
   xmlns="http://www.w3.org/2000/svg"
   xmlns:svg="http://www.w3.org/2000/svg"><sodipodi:namedview
     id="namedview1"
     pagecolor="#ffffff"
     bordercolor="#000000"
     borderopacity="0.25"
     inkscape:showpageshadow="2"
     inkscape:pageopacity="0.0"
     inkscape:pagecheckerboard="0"
     inkscape:deskcolor="#d1d1d1"
     inkscape:document-units="mm"><inkscape:page
       x="0"
       y="0"
       width="159.49959"
       height="97.785202"
       id="page1"
       margin="0"
       bleed="0" /></sodipodi:namedview><defs
     id="defs1" /><g
     id="g1"
     inkscape:groupmode="layer"
     inkscape:label="1"
     transform="matrix(0.26458332,0,0,0.26458334,185.30769,-17.767825)"><g
       id="group-R5"
       transform="matrix(0.4303041,0,0,0.4303041,-700.37556,67.156267)"
       style="fill:#ffffff;fill-opacity:1;stroke-width:2.32394"
       inkscape:export-filename="ASL_white.png"
       inkscape:export-xdpi="77.925896"
       inkscape:export-ydpi="77.925896"><path
         id="path2"
         d="M 312.695,359.359 H 515.344 L 414.016,634.969 Z M 501.836,843.031 819.324,13.5 H 643.691 L 569.387,213.461 H 258.652 L 185.695,13.5 H 12.7656 L 330.258,843.031 h 171.578"
         style="fill:#ffffff;fill-opacity:1;fill-rule:nonzero;stroke:none;stroke-width:2.32394"
         transform="matrix(0.13333333,0,0,-0.13333333,0,858.88)" /><path
         id="path3"
         d="m 1094.26,464.742 h 159.42 c 86.46,0 131.04,45.93 131.04,114.84 0,70.246 -44.58,116.188 -131.04,116.188 h -159.42 z m 0,-141.851 V 13.5 H 922.68 v 829.531 h 341.81 c 174.27,0 290.46,-93.23 290.46,-263.449 0,-132.402 -72.95,-216.16 -189.14,-244.531 L 1584.67,13.5 h -194.54 l -205.36,309.391 h -90.51"
         style="fill:#ffffff;fill-opacity:1;fill-rule:nonzero;stroke:none;stroke-width:2.32394"
         transform="matrix(0.13333333,0,0,-0.13333333,0,858.88)" /><path
         id="path4"
         d="m 1643.56,843.031 h 707.93 V 691.719 h -267.5 V 13.5 h -174.28 v 678.219 h -266.15 v 151.312"
         style="fill:#ffffff;fill-opacity:1;fill-rule:nonzero;stroke:none;stroke-width:2.32394"
         transform="matrix(0.13333333,0,0,-0.13333333,0,858.88)" /><path
         id="path5"
         d="M 3023.48,843.031 V 691.719 H 2630.34 V 510.672 h 356.67 v -147.25 h -356.67 v -197.25 h 393.14 V 13.5 h -563.37 v 829.531 h 563.37"
         style="fill:#ffffff;fill-opacity:1;fill-rule:nonzero;stroke:none;stroke-width:2.32394"
         transform="matrix(0.13333333,0,0,-0.13333333,0,858.88)" /><path
         id="path6"
         d="m 3743.55,166.172 c 158.06,0 244.53,101.328 244.53,262.098 0,162.121 -86.47,263.449 -244.53,263.449 H 3628.71 V 166.172 Z m -286.42,676.859 h 293.18 c 251.29,0 409.35,-162.121 409.35,-414.761 0,-252.649 -158.06,-414.77 -409.35,-414.77 h -293.18 v 829.531"
         style="fill:#ffffff;fill-opacity:1;fill-rule:nonzero;stroke:none;stroke-width:2.32394"
         transform="matrix(0.13333333,0,0,-0.13333333,0,858.88)" /><path
         id="path7"
         d="M 4861.64,843.031 V 691.719 H 4468.5 V 510.672 h 356.66 V 363.422 H 4468.5 v -197.25 h 393.14 V 13.5 h -563.37 v 829.531 h 563.37"
         style="fill:#ffffff;fill-opacity:1;fill-rule:nonzero;stroke:none;stroke-width:2.32394"
         transform="matrix(0.13333333,0,0,-0.13333333,0,858.88)" /><path
         id="path8"
         d="m 5416.88,249.93 c 22.97,-72.95 83.77,-106.731 164.82,-106.731 83.76,0 139.16,37.832 139.16,104.031 0,49.989 -29.72,77.012 -101.33,93.219 l -148.61,33.781 c -118.89,27.02 -210.76,90.512 -210.76,226.969 0,149.961 124.3,255.332 298.57,255.332 189.14,0 298.58,-99.972 325.6,-240.48 h -171.57 c -18.92,55.39 -66.2,98.629 -152.67,98.629 -78.36,0 -131.05,-37.828 -131.05,-97.27 0,-47.281 31.07,-75.66 93.22,-90.519 L 5673.58,491.77 C 5808.67,460.691 5891.09,383.68 5891.09,258.039 5891.09,97.2617 5758.68,0 5583.05,0 5397.96,0 5266.92,91.8594 5238.55,249.93 h 178.33"
         style="fill:#ffffff;fill-opacity:1;fill-rule:nonzero;stroke:none;stroke-width:2.32394"
         transform="matrix(0.13333333,0,0,-0.13333333,0,858.88)" /><path
         id="path9"
         d="m 6240.33,359.359 h 202.65 l -101.33,275.61 z M 6429.48,843.031 6746.96,13.5 h -175.63 l -74.31,199.961 H 6186.29 L 6113.33,13.5 H 5940.4 l 317.49,829.531 h 171.59"
         style="fill:#ffffff;fill-opacity:1;fill-rule:nonzero;stroke:none;stroke-width:2.32394"
         transform="matrix(0.13333333,0,0,-0.13333333,0,858.88)" /><path
         id="path10"
         d="M 7544.73,13.5 H 7408.27 L 7016.49,566.07 V 13.5 h -166.18 v 829.531 h 162.12 L 7378.56,318.84 v 524.191 h 166.17 V 13.5"
         style="fill:#ffffff;fill-opacity:1;fill-rule:nonzero;stroke:none;stroke-width:2.32394"
         transform="matrix(0.13333333,0,0,-0.13333333,0,858.88)" /><path
         id="path11"
         d="m 7977.02,843.031 h 172.93 V 166.172 h 386.4 V 13.5 h -559.33 v 829.531"
         style="fill:#ffffff;fill-opacity:1;fill-rule:nonzero;stroke:none;stroke-width:2.32394"
         transform="matrix(0.13333333,0,0,-0.13333333,0,858.88)" /><path
         id="path12"
         d="m 8629.42,347.211 v 495.82 h 172.93 V 364.762 c 0,-141.852 62.15,-209.403 171.58,-209.403 109.43,0 171.58,67.551 171.58,209.403 v 478.269 h 172.93 V 347.211 C 9318.44,118.891 9181.99,0 8973.93,0 8767.22,0 8629.42,118.891 8629.42,347.211"
         style="fill:#ffffff;fill-opacity:1;fill-rule:nonzero;stroke:none;stroke-width:2.32394"
         transform="matrix(0.13333333,0,0,-0.13333333,0,858.88)" /><path
         id="path13"
         d="m 9663.46,13.5 h -172.93 v 829.531 h 172.93 V 13.5"
         style="fill:#ffffff;fill-opacity:1;fill-rule:nonzero;stroke:none;stroke-width:2.32394"
         transform="matrix(0.13333333,0,0,-0.13333333,0,858.88)" /><path
         id="path14"
         d="m 9966.08,249.93 c 22.97,-72.95 83.72,-106.731 164.82,-106.731 83.8,0 139.2,37.832 139.2,104.031 0,49.989 -29.8,77.012 -101.4,93.219 l -148.6,33.781 c -118.87,27.02 -210.74,90.512 -210.74,226.969 0,149.961 124.3,255.332 298.54,255.332 189.2,0 298.6,-99.972 325.6,-240.48 H 10262 c -19,55.39 -66.2,98.629 -152.7,98.629 -78.4,0 -131.06,-37.828 -131.06,-97.27 0,-47.281 31.06,-75.66 93.26,-90.519 l 151.3,-35.121 c 135.1,-31.079 217.5,-108.09 217.5,-233.731 C 10440.3,97.2617 10307.9,0 10132.2,0 9947.16,0 9816.12,91.8594 9787.75,249.93 h 178.33"
         style="fill:#ffffff;fill-opacity:1;fill-rule:nonzero;stroke:none;stroke-width:2.32394"
         transform="matrix(0.13333333,0,0,-0.13333333,0,858.88)" /><path
         id="path15"
         d="m 6300.63,4530.3 -874.81,214.04 c -236.21,51.68 -474.62,163.64 -474.62,362.95 0,250.99 190.89,352.24 530.46,352.24 311.77,0 553.73,-170.76 600.27,-442.92 h 930.63 v 876.44 c -328.53,333.21 -824.69,548.59 -1465.75,548.59 -1274.98,0 -1907.81,-620.4 -1907.81,-1506.24 0,-767.72 700.21,-1114.67 1364.59,-1262.32 585.09,-124.6 1162.18,-284.54 1166.75,-599.23 4.07,-280.48 -241.97,-397.33 -586.3,-397.33 -442.06,0 -684.03,276.35 -717.81,629.99 h -587.48 l 558.94,-1533.02 c 220.43,-55.91 483.1,-86.29 797.53,-86.29 989.19,0 1907.81,568.55 1907.81,1498.68 0,701.28 -467.3,1159.87 -1242.4,1344.42"
         style="fill:#ffffff;fill-opacity:1;fill-rule:nonzero;stroke:none;stroke-width:2.32394"
         transform="matrix(0.13333333,0,0,-0.13333333,0,858.88)" /><path
         id="path16"
         d="M 8487.62,2948.21 V 6326.43 H 7147.5 V 4298.28 c 60.1,-46.74 115.57,-96.88 166.28,-150.37 244.75,-258.09 368.84,-581.77 368.84,-962.03 0,-436.55 -189,-832.42 -535.12,-1127.74 v -263.91 h 325.73 1014.39 2019.48 V 2948.21 H 8487.62"
         style="fill:#ffffff;fill-opacity:1;fill-rule:nonzero;stroke:none;stroke-width:2.32394"
         transform="matrix(0.13333333,0,0,-0.13333333,0,858.88)" /><path
         id="path17"
         d="m 2442.45,3405.39 h -589.58 l 465.07,1522.63 446.35,-1522.63 z m 1622.08,40.72 v 0 l -242.1,664.05 c -214.52,227.64 -323.02,504.35 -323.02,825.24 0,19.51 0.39,38.84 0.95,58.1 L 3012.87,6330.59 H 1652.53 L 0,1798.07 h 1379.56 l 223.87,643.67 h 1058.09 382.25 l 212.54,-643.67 v 0 h 1123.7 285.39 l -600.87,1648.04"
         style="fill:#ffffff;fill-opacity:1;fill-rule:nonzero;stroke:none;stroke-width:2.32394"
         transform="matrix(0.13333333,0,0,-0.13333333,0,858.88)" /></g></g></svg>
