<?xml version="1.0" encoding="UTF-8" standalone="no"?>
<!-- Created with Inkscape (http://www.inkscape.org/) -->

<svg
   version="1.1"
   id="svg1"
   width="227.9688"
   height="126.7063"
   viewBox="0 0 227.9688 126.7063"
   sodipodi:docname="AVA SL_logos.ai"
   xmlns:inkscape="http://www.inkscape.org/namespaces/inkscape"
   xmlns:sodipodi="http://sodipodi.sourceforge.net/DTD/sodipodi-0.dtd"
   xmlns="http://www.w3.org/2000/svg"
   xmlns:svg="http://www.w3.org/2000/svg">
  <defs
     id="defs1" />
  <sodipodi:namedview
     id="namedview1"
     pagecolor="#ffffff"
     bordercolor="#000000"
     borderopacity="0.25"
     inkscape:showpageshadow="2"
     inkscape:pageopacity="0.0"
     inkscape:pagecheckerboard="0"
     inkscape:deskcolor="#d1d1d1">
    <inkscape:page
       x="0"
       y="0"
       width="227.9688"
       height="126.7063"
       id="page2"
       margin="0"
       bleed="0" />
  </sodipodi:namedview>
  <g
     id="layer-MC0"
     inkscape:groupmode="layer"
     inkscape:label="2"
     style="display:none"
     transform="translate(-71.773734,-639.44439)">
    <path
       id="path247"
       d="m 0,0 h -143.334 v 109.059 l 106.458,-0.715 z"
       style="fill:#000000;fill-opacity:1;fill-rule:nonzero;stroke:none"
       transform="matrix(1.3333333,0,0,-1.3333333,191.11227,799.6332)" />
    <path
       id="path248"
       d="m 0,0 -14.786,45.299 h 6.317 L -1.411,22.985 C 0.538,16.87 2.217,11.358 3.427,6.049 h 0.135 c 1.277,5.242 3.159,10.955 5.175,16.869 l 7.662,22.381 h 6.25 L 6.452,0 Z"
       style="fill:#ffffff;fill-opacity:1;fill-rule:nonzero;stroke:none"
       transform="matrix(1.3333333,0,0,-1.3333333,71.787333,758.15013)" />
    <path
       id="path249"
       d="M 0,0 H 13.665 L 6.833,-16.529 Z"
       style="fill:#ffffff;fill-opacity:1;fill-rule:nonzero;stroke:none"
       transform="matrix(1.3333333,0,0,-1.3333333,68.032133,711.64493)" />
    <path
       id="path252"
       d="M 0,0 14.786,-45.299 H 8.468 l -7.057,22.314 c -1.949,6.116 -3.628,11.627 -4.838,16.936 h -0.135 c -1.277,-5.242 -3.159,-10.955 -5.175,-16.869 l -7.662,-22.381 h -6.25 L -6.452,0 Z"
       style="fill:#ffffff;fill-opacity:1;fill-rule:nonzero;stroke:none"
       transform="matrix(1.3333333,0,0,-1.3333333,122.22947,697.7516)" />
    <path
       id="path253"
       d="m 0,0 h -13.665 l 6.832,16.528 z"
       style="fill:#ffffff;fill-opacity:1;fill-rule:nonzero;stroke:none"
       transform="matrix(1.3333333,0,0,-1.3333333,125.98467,744.2556)" />
    <path
       id="path261"
       d="m 0,0 0.4,0.035 c 0.019,-0.16 0.063,-0.292 0.132,-0.394 0.07,-0.103 0.177,-0.186 0.322,-0.249 0.146,-0.064 0.31,-0.095 0.493,-0.095 0.161,0 0.304,0.023 0.428,0.071 0.123,0.049 0.216,0.114 0.277,0.198 0.06,0.084 0.091,0.175 0.091,0.275 0,0.1 -0.03,0.188 -0.088,0.263 C 1.996,0.179 1.9,0.242 1.767,0.293 1.68,0.327 1.49,0.379 1.195,0.449 0.901,0.521 0.695,0.587 0.577,0.649 0.424,0.729 0.31,0.829 0.235,0.948 0.16,1.066 0.122,1.199 0.122,1.347 c 0,0.162 0.046,0.313 0.138,0.454 0.092,0.14 0.226,0.247 0.402,0.32 0.177,0.072 0.372,0.108 0.588,0.108 0.238,0 0.447,-0.038 0.629,-0.114 C 2.061,2.039 2.199,1.926 2.297,1.777 2.395,1.629 2.447,1.461 2.455,1.272 L 2.048,1.242 C 2.026,1.444 1.952,1.598 1.826,1.701 1.7,1.805 1.514,1.856 1.268,1.856 1.012,1.856 0.824,1.81 0.707,1.715 0.59,1.621 0.531,1.508 0.531,1.375 0.531,1.26 0.572,1.165 0.655,1.091 0.737,1.017 0.95,0.94 1.295,0.862 1.64,0.784 1.876,0.717 2.005,0.658 2.191,0.572 2.329,0.463 2.418,0.331 2.507,0.199 2.551,0.048 2.551,-0.124 2.551,-0.295 2.502,-0.455 2.404,-0.606 2.307,-0.757 2.167,-0.874 1.983,-0.958 1.801,-1.042 1.595,-1.084 1.366,-1.084 c -0.29,0 -0.533,0.042 -0.729,0.127 -0.196,0.084 -0.35,0.212 -0.461,0.381 C 0.064,-0.406 0.006,-0.214 0,0"
       style="fill:#ffffff;fill-opacity:1;fill-rule:nonzero;stroke:none"
       transform="matrix(1.3333333,0,0,-1.3333333,71.247067,768.99253)" />
    <path
       id="path262"
       d="m 0,0 -1.242,3.204 h 0.459 L 0.05,0.877 C 0.117,0.69 0.173,0.515 0.218,0.352 0.268,0.526 0.325,0.702 0.391,0.877 L 1.257,3.204 H 1.689 L 0.435,0 Z"
       style="fill:#ffffff;fill-opacity:1;fill-rule:nonzero;stroke:none"
       transform="matrix(1.3333333,0,0,-1.3333333,79.959333,770.36493)" />
    <path
       id="path263"
       d="m 62.111,25.155 h 0.424 v -3.204 h -0.424 z"
       style="fill:#ffffff;fill-opacity:1;fill-rule:nonzero;stroke:none"
       transform="matrix(1.3333333,0,0,-1.3333333,0,799.63333)" />
    <path
       id="path264"
       d="m 0,0 0.4,0.035 c 0.019,-0.16 0.063,-0.292 0.132,-0.394 0.07,-0.103 0.177,-0.186 0.322,-0.249 0.146,-0.064 0.31,-0.095 0.493,-0.095 0.161,0 0.304,0.023 0.428,0.071 0.123,0.049 0.216,0.114 0.277,0.198 0.06,0.084 0.091,0.175 0.091,0.275 0,0.1 -0.03,0.188 -0.088,0.263 C 1.996,0.179 1.9,0.242 1.767,0.293 1.68,0.327 1.49,0.379 1.195,0.449 0.901,0.521 0.695,0.587 0.577,0.649 0.424,0.729 0.31,0.829 0.235,0.948 0.16,1.066 0.122,1.199 0.122,1.347 c 0,0.162 0.046,0.313 0.138,0.454 0.092,0.14 0.226,0.247 0.402,0.32 0.177,0.072 0.372,0.108 0.588,0.108 0.238,0 0.447,-0.038 0.629,-0.114 C 2.061,2.039 2.199,1.926 2.297,1.777 2.395,1.629 2.447,1.461 2.455,1.272 L 2.048,1.242 C 2.026,1.444 1.952,1.598 1.826,1.701 1.7,1.805 1.514,1.856 1.268,1.856 1.012,1.856 0.824,1.81 0.707,1.715 0.59,1.621 0.531,1.508 0.531,1.375 0.531,1.26 0.572,1.165 0.655,1.091 0.737,1.017 0.95,0.94 1.295,0.862 1.64,0.784 1.876,0.717 2.005,0.658 2.191,0.572 2.329,0.463 2.418,0.331 2.507,0.199 2.551,0.048 2.551,-0.124 2.551,-0.295 2.502,-0.455 2.404,-0.606 2.307,-0.757 2.167,-0.874 1.983,-0.958 1.801,-1.042 1.595,-1.084 1.366,-1.084 c -0.29,0 -0.533,0.042 -0.729,0.127 -0.196,0.084 -0.35,0.212 -0.461,0.381 C 0.064,-0.406 0.006,-0.214 0,0"
       style="fill:#ffffff;fill-opacity:1;fill-rule:nonzero;stroke:none"
       transform="matrix(1.3333333,0,0,-1.3333333,84.184533,768.99253)" />
    <path
       id="path265"
       d="m 0,0 h 0.424 v -1.851 c 0,-0.322 -0.036,-0.578 -0.11,-0.767 -0.072,-0.19 -0.204,-0.344 -0.394,-0.463 -0.19,-0.118 -0.44,-0.178 -0.748,-0.178 -0.301,0 -0.546,0.052 -0.737,0.155 -0.191,0.104 -0.328,0.253 -0.409,0.45 -0.082,0.196 -0.123,0.464 -0.123,0.803 V 0 h 0.425 v -1.849 c 0,-0.278 0.026,-0.483 0.077,-0.615 0.052,-0.132 0.141,-0.233 0.267,-0.306 0.126,-0.071 0.28,-0.106 0.463,-0.106 0.311,0 0.533,0.07 0.666,0.212 C -0.066,-2.522 0,-2.251 0,-1.849 Z"
       style="fill:#ffffff;fill-opacity:1;fill-rule:nonzero;stroke:none"
       transform="matrix(1.3333333,0,0,-1.3333333,91.1624,766.0928)" />
    <path
       id="path266"
       d="M 0,0 H 1.087 L 0.752,0.887 C 0.65,1.156 0.574,1.378 0.524,1.552 0.484,1.346 0.427,1.142 0.353,0.939 Z M -0.925,-1.316 0.306,1.888 H 0.763 L 2.074,-1.316 H 1.592 l -0.374,0.97 h -1.34 l -0.353,-0.97 z"
       style="fill:#ffffff;fill-opacity:1;fill-rule:nonzero;stroke:none"
       transform="matrix(1.3333333,0,0,-1.3333333,93.431867,768.60973)" />
    <path
       id="path267"
       d="M 0,0 V 3.204 H 0.424 V 0.378 H 2.002 V 0 Z"
       style="fill:#ffffff;fill-opacity:1;fill-rule:nonzero;stroke:none"
       transform="matrix(1.3333333,0,0,-1.3333333,96.6272,770.36493)" />
    <path
       id="path268"
       d="M 0,0 V 3.204 H 2.316 V 2.826 H 0.424 V 1.845 H 2.196 V 1.469 H 0.424 V 0.378 H 2.391 V 0 Z"
       style="fill:#ffffff;fill-opacity:1;fill-rule:nonzero;stroke:none"
       transform="matrix(1.3333333,0,0,-1.3333333,99.981467,770.36493)" />
    <path
       id="path269"
       d="m 0,0 0.4,0.035 c 0.019,-0.16 0.063,-0.292 0.132,-0.394 0.07,-0.103 0.177,-0.186 0.322,-0.249 0.146,-0.064 0.31,-0.095 0.493,-0.095 0.161,0 0.304,0.023 0.428,0.071 0.123,0.049 0.216,0.114 0.277,0.198 0.06,0.084 0.091,0.175 0.091,0.275 0,0.1 -0.03,0.188 -0.088,0.263 C 1.996,0.179 1.9,0.242 1.767,0.293 1.68,0.327 1.49,0.379 1.195,0.449 0.901,0.521 0.695,0.587 0.577,0.649 0.424,0.729 0.31,0.829 0.235,0.948 0.16,1.066 0.122,1.199 0.122,1.347 c 0,0.162 0.046,0.313 0.138,0.454 0.092,0.14 0.226,0.247 0.402,0.32 0.177,0.072 0.372,0.108 0.588,0.108 0.238,0 0.447,-0.038 0.629,-0.114 C 2.061,2.039 2.199,1.926 2.297,1.777 2.395,1.629 2.447,1.461 2.455,1.272 L 2.048,1.242 C 2.026,1.444 1.952,1.598 1.826,1.701 1.7,1.805 1.514,1.856 1.268,1.856 1.012,1.856 0.824,1.81 0.707,1.715 0.59,1.621 0.531,1.508 0.531,1.375 0.531,1.26 0.572,1.165 0.655,1.091 0.737,1.017 0.95,0.94 1.295,0.862 1.64,0.784 1.876,0.717 2.005,0.658 2.191,0.572 2.329,0.463 2.418,0.331 2.507,0.199 2.551,0.048 2.551,-0.124 2.551,-0.295 2.502,-0.455 2.404,-0.606 2.307,-0.757 2.167,-0.874 1.983,-0.958 1.801,-1.042 1.595,-1.084 1.366,-1.084 c -0.29,0 -0.533,0.042 -0.729,0.127 -0.196,0.084 -0.35,0.212 -0.461,0.381 C 0.064,-0.406 0.006,-0.214 0,0"
       style="fill:#ffffff;fill-opacity:1;fill-rule:nonzero;stroke:none"
       transform="matrix(1.3333333,0,0,-1.3333333,103.7588,768.99253)" />
  </g>
  <g
     id="layer-MC1"
     inkscape:groupmode="layer"
     inkscape:label="1"
     transform="translate(-71.773734,-639.44439)">
    <path
       id="path329"
       d="M 0,0 -9.534,20.239 -19.115,0 -21.67,-5.397 -30.38,-23.794 h -6.234 l 26.417,55.912 h 1.368 L 17.246,-23.794 H 11.21 L 2.417,-5.397 Z"
       style="fill:#000000;fill-opacity:1;fill-rule:nonzero;stroke:none"
       transform="matrix(1.3333333,0,0,-1.3333333,124.10253,682.26853)" />
    <path
       id="path330"
       d="M 0,0 -9.534,20.239 -19.115,0 -21.67,-5.397 -30.38,-23.794 h -6.234 l 26.417,55.912 h 1.368 L 17.246,-23.794 H 11.21 L 2.417,-5.397 Z"
       style="fill:#000000;fill-opacity:1;fill-rule:nonzero;stroke:none"
       transform="matrix(1.3333333,0,0,-1.3333333,273.92667,682.26853)" />
    <path
       id="path331"
       d="M 0,0 H 6.082 L 24.612,-43.196 43.445,0 h 6.081 L 25.2,-55.912 h -1.216 z"
       style="fill:#000000;fill-opacity:1;fill-rule:nonzero;stroke:none"
       transform="matrix(1.3333333,0,0,-1.3333333,152.97493,639.4444)" />
    <path
       id="path335"
       d="M 0,0 H 2.522 L 1.746,2.06 C 1.509,2.686 1.333,3.199 1.218,3.603 1.123,3.125 0.99,2.651 0.817,2.182 Z M -2.146,-3.055 0.71,4.384 H 1.771 L 4.815,-3.055 H 3.694 l -0.868,2.253 h -3.11 l -0.817,-2.253 z"
       style="fill:#000000;fill-opacity:1;fill-rule:nonzero;stroke:none"
       transform="matrix(1.3333333,0,0,-1.3333333,74.635067,743.2412)" />
    <path
       id="path336"
       d="M 0,0 H 2.116 C 2.565,0 2.917,0.047 3.171,0.14 3.425,0.232 3.618,0.382 3.75,0.586 3.881,0.791 3.947,1.014 3.947,1.254 3.947,1.605 3.82,1.895 3.564,2.121 3.309,2.348 2.905,2.461 2.354,2.461 H 0 Z m -0.984,-4.155 v 7.438 h 3.297 c 0.664,0 1.167,-0.067 1.513,-0.2 C 4.17,2.949 4.446,2.713 4.653,2.375 4.859,2.036 4.962,1.663 4.962,1.254 4.962,0.726 4.792,0.281 4.45,-0.081 4.108,-0.443 3.581,-0.673 2.867,-0.771 3.127,-0.896 3.325,-1.02 3.46,-1.142 3.748,-1.405 4.02,-1.735 4.277,-2.131 L 5.571,-4.155 H 4.333 l -0.984,1.548 c -0.288,0.446 -0.525,0.788 -0.711,1.024 -0.186,0.237 -0.352,0.402 -0.499,0.497 -0.148,0.095 -0.297,0.161 -0.45,0.198 -0.111,0.024 -0.294,0.035 -0.547,0.035 H 0 v -3.302 z"
       style="fill:#000000;fill-opacity:1;fill-rule:nonzero;stroke:none"
       transform="matrix(1.3333333,0,0,-1.3333333,83.436533,741.77373)" />
    <path
       id="path337"
       d="M 0,0 V 6.561 H -2.451 V 7.438 H 3.445 V 6.561 H 0.984 V 0 Z"
       style="fill:#000000;fill-opacity:1;fill-rule:nonzero;stroke:none"
       transform="matrix(1.3333333,0,0,-1.3333333,94.383067,747.31413)" />
    <path
       id="path338"
       d="m 75.409,46.678 h 0.984 V 39.24 h -0.984 z"
       style="fill:#000000;fill-opacity:1;fill-rule:nonzero;stroke:none"
       transform="matrix(1.3333333,0,0,-1.3333333,0,799.63333)" />
    <path
       id="path339"
       d="m 0,0 0.929,0.081 c 0.044,-0.372 0.146,-0.677 0.306,-0.916 0.161,-0.238 0.411,-0.431 0.749,-0.578 0.338,-0.148 0.719,-0.221 1.141,-0.221 0.376,0 0.708,0.056 0.995,0.168 0.287,0.112 0.502,0.265 0.642,0.459 0.14,0.195 0.21,0.406 0.21,0.637 0,0.233 -0.067,0.436 -0.202,0.611 C 4.634,0.415 4.411,0.562 4.1,0.68 3.9,0.758 3.458,0.879 2.775,1.043 2.092,1.207 1.613,1.361 1.339,1.507 0.984,1.693 0.72,1.924 0.545,2.199 0.371,2.476 0.284,2.784 0.284,3.126 c 0,0.375 0.107,0.726 0.32,1.053 0.213,0.326 0.524,0.574 0.934,0.743 0.409,0.169 0.863,0.254 1.364,0.254 0.552,0 1.038,-0.089 1.459,-0.267 C 4.782,4.731 5.106,4.47 5.333,4.125 5.559,3.78 5.681,3.39 5.698,2.953 L 4.754,2.882 C 4.704,3.353 4.532,3.707 4.239,3.947 3.947,4.187 3.515,4.308 2.943,4.308 2.348,4.308 1.914,4.198 1.642,3.98 1.369,3.763 1.233,3.499 1.233,3.191 1.233,2.925 1.329,2.704 1.522,2.532 1.711,2.359 2.206,2.183 3.006,2.002 3.806,1.82 4.355,1.663 4.653,1.527 5.085,1.328 5.405,1.075 5.612,0.769 5.818,0.463 5.921,0.11 5.921,-0.289 5.921,-0.685 5.808,-1.058 5.581,-1.408 5.354,-1.758 5.029,-2.03 4.604,-2.225 4.18,-2.419 3.702,-2.517 3.171,-2.517 2.498,-2.517 1.934,-2.418 1.479,-2.223 1.024,-2.026 0.667,-1.73 0.408,-1.337 0.15,-0.942 0.014,-0.497 0,0"
       style="fill:#000000;fill-opacity:1;fill-rule:nonzero;stroke:none"
       transform="matrix(1.3333333,0,0,-1.3333333,103.7256,744.128)" />
    <path
       id="path340"
       d="M 0,0 V 6.561 H -2.451 V 7.438 H 3.445 V 6.561 H 0.984 V 0 Z"
       style="fill:#000000;fill-opacity:1;fill-rule:nonzero;stroke:none"
       transform="matrix(1.3333333,0,0,-1.3333333,115.93653,747.31413)" />
    <path
       id="path341"
       d="M 0,0 H 2.522 L 1.746,2.06 C 1.509,2.686 1.333,3.199 1.218,3.603 1.123,3.125 0.99,2.651 0.817,2.182 Z M -2.146,-3.055 0.71,4.384 H 1.771 L 4.815,-3.055 H 3.694 l -0.868,2.253 h -3.11 l -0.817,-2.253 z"
       style="fill:#000000;fill-opacity:1;fill-rule:nonzero;stroke:none"
       transform="matrix(1.3333333,0,0,-1.3333333,122.61947,743.2412)" />
    <path
       id="path342"
       d="m 0,0 0.929,0.081 c 0.044,-0.372 0.146,-0.677 0.306,-0.916 0.161,-0.238 0.411,-0.431 0.749,-0.578 0.338,-0.148 0.719,-0.221 1.141,-0.221 0.376,0 0.708,0.056 0.995,0.168 0.287,0.112 0.502,0.265 0.642,0.459 0.14,0.195 0.21,0.406 0.21,0.637 0,0.233 -0.067,0.436 -0.202,0.611 C 4.634,0.415 4.411,0.562 4.1,0.68 3.9,0.758 3.458,0.879 2.775,1.043 2.092,1.207 1.613,1.361 1.339,1.507 0.984,1.693 0.72,1.924 0.545,2.199 0.371,2.476 0.284,2.784 0.284,3.126 c 0,0.375 0.107,0.726 0.32,1.053 0.213,0.326 0.524,0.574 0.934,0.743 0.409,0.169 0.863,0.254 1.364,0.254 0.552,0 1.038,-0.089 1.459,-0.267 C 4.782,4.731 5.106,4.47 5.333,4.125 5.559,3.78 5.681,3.39 5.698,2.953 L 4.754,2.882 C 4.704,3.353 4.532,3.707 4.239,3.947 3.947,4.187 3.515,4.308 2.943,4.308 2.348,4.308 1.914,4.198 1.642,3.98 1.369,3.763 1.233,3.499 1.233,3.191 1.233,2.925 1.329,2.704 1.522,2.532 1.711,2.359 2.206,2.183 3.006,2.002 3.806,1.82 4.355,1.663 4.653,1.527 5.085,1.328 5.405,1.075 5.612,0.769 5.818,0.463 5.921,0.11 5.921,-0.289 5.921,-0.685 5.808,-1.058 5.581,-1.408 5.354,-1.758 5.029,-2.03 4.604,-2.225 4.18,-2.419 3.702,-2.517 3.171,-2.517 2.498,-2.517 1.934,-2.418 1.479,-2.223 1.024,-2.026 0.667,-1.73 0.408,-1.337 0.15,-0.942 0.014,-0.497 0,0"
       style="fill:#000000;fill-opacity:1;fill-rule:nonzero;stroke:none"
       transform="matrix(1.3333333,0,0,-1.3333333,129.6416,744.128)" />
    <path
       id="path343"
       d="m 0,0 -2.882,7.438 h 1.066 L 0.117,2.034 C 0.272,1.602 0.402,1.195 0.507,0.816 0.622,1.223 0.756,1.629 0.908,2.034 L 2.917,7.438 H 3.922 L 1.01,0 Z"
       style="fill:#000000;fill-opacity:1;fill-rule:nonzero;stroke:none"
       transform="matrix(1.3333333,0,0,-1.3333333,146.01333,747.31413)" />
    <path
       id="path344"
       d="m 114.482,46.678 h 0.984 V 39.24 h -0.984 z"
       style="fill:#000000;fill-opacity:1;fill-rule:nonzero;stroke:none"
       transform="matrix(1.3333333,0,0,-1.3333333,0,799.63333)" />
    <path
       id="path345"
       d="m 0,0 0.929,0.081 c 0.044,-0.372 0.146,-0.677 0.306,-0.916 0.161,-0.238 0.411,-0.431 0.749,-0.578 0.338,-0.148 0.719,-0.221 1.141,-0.221 0.376,0 0.708,0.056 0.995,0.168 0.287,0.112 0.502,0.265 0.642,0.459 0.14,0.195 0.21,0.406 0.21,0.637 0,0.233 -0.067,0.436 -0.202,0.611 C 4.634,0.415 4.411,0.562 4.1,0.68 3.9,0.758 3.458,0.879 2.775,1.043 2.092,1.207 1.613,1.361 1.339,1.507 0.984,1.693 0.72,1.924 0.545,2.199 0.371,2.476 0.284,2.784 0.284,3.126 c 0,0.375 0.107,0.726 0.32,1.053 0.213,0.326 0.524,0.574 0.934,0.743 0.409,0.169 0.863,0.254 1.364,0.254 0.552,0 1.038,-0.089 1.459,-0.267 C 4.782,4.731 5.106,4.47 5.333,4.125 5.559,3.78 5.681,3.39 5.698,2.953 L 4.754,2.882 C 4.704,3.353 4.532,3.707 4.239,3.947 3.947,4.187 3.515,4.308 2.943,4.308 2.348,4.308 1.914,4.198 1.642,3.98 1.369,3.763 1.233,3.499 1.233,3.191 1.233,2.925 1.329,2.704 1.522,2.532 1.711,2.359 2.206,2.183 3.006,2.002 3.806,1.82 4.355,1.663 4.653,1.527 5.085,1.328 5.405,1.075 5.612,0.769 5.818,0.463 5.921,0.11 5.921,-0.289 5.921,-0.685 5.808,-1.058 5.581,-1.408 5.354,-1.758 5.029,-2.03 4.604,-2.225 4.18,-2.419 3.702,-2.517 3.171,-2.517 2.498,-2.517 1.934,-2.418 1.479,-2.223 1.024,-2.026 0.667,-1.73 0.408,-1.337 0.15,-0.942 0.014,-0.497 0,0"
       style="fill:#000000;fill-opacity:1;fill-rule:nonzero;stroke:none"
       transform="matrix(1.3333333,0,0,-1.3333333,155.82253,744.128)" />
    <path
       id="path346"
       d="m 0,0 h 0.984 v -4.298 c 0,-0.747 -0.084,-1.341 -0.253,-1.781 -0.169,-0.44 -0.475,-0.797 -0.916,-1.072 -0.441,-0.277 -1.021,-0.414 -1.738,-0.414 -0.697,0 -1.267,0.12 -1.71,0.36 -0.443,0.24 -0.759,0.588 -0.949,1.043 -0.189,0.455 -0.284,1.076 -0.284,1.864 V 0 h 0.985 v -4.293 c 0,-0.645 0.06,-1.122 0.18,-1.428 0.12,-0.306 0.326,-0.542 0.619,-0.708 0.292,-0.166 0.65,-0.249 1.073,-0.249 0.724,0 1.239,0.164 1.548,0.492 C -0.154,-5.857 0,-5.227 0,-4.293 Z"
       style="fill:#000000;fill-opacity:1;fill-rule:nonzero;stroke:none"
       transform="matrix(1.3333333,0,0,-1.3333333,172.01787,737.39613)" />
    <path
       id="path347"
       d="M 0,0 H 2.522 L 1.746,2.06 C 1.509,2.686 1.333,3.199 1.218,3.603 1.123,3.125 0.99,2.651 0.817,2.182 Z M -2.146,-3.055 0.71,4.384 H 1.771 L 4.815,-3.055 H 3.694 l -0.868,2.253 h -3.11 l -0.817,-2.253 z"
       style="fill:#000000;fill-opacity:1;fill-rule:nonzero;stroke:none"
       transform="matrix(1.3333333,0,0,-1.3333333,177.288,743.2412)" />
    <path
       id="path348"
       d="M 0,0 V 7.438 H 0.984 V 0.878 H 4.647 V 0 Z"
       style="fill:#000000;fill-opacity:1;fill-rule:nonzero;stroke:none"
       transform="matrix(1.3333333,0,0,-1.3333333,184.7028,747.31413)" />
    <path
       id="path349"
       d="M 0,0 V 7.438 H 5.378 V 6.561 H 0.984 V 4.282 H 5.1 V 3.409 H 0.984 V 0.878 H 5.551 V 0 Z"
       style="fill:#000000;fill-opacity:1;fill-rule:nonzero;stroke:none"
       transform="matrix(1.3333333,0,0,-1.3333333,192.4892,747.31413)" />
    <path
       id="path350"
       d="m 0,0 0.929,0.081 c 0.044,-0.372 0.146,-0.677 0.306,-0.916 0.161,-0.238 0.411,-0.431 0.749,-0.578 0.338,-0.148 0.719,-0.221 1.141,-0.221 0.376,0 0.708,0.056 0.995,0.168 0.287,0.112 0.502,0.265 0.642,0.459 0.14,0.195 0.21,0.406 0.21,0.637 0,0.233 -0.067,0.436 -0.202,0.611 C 4.634,0.415 4.411,0.562 4.1,0.68 3.9,0.758 3.458,0.879 2.775,1.043 2.092,1.207 1.613,1.361 1.339,1.507 0.984,1.693 0.72,1.924 0.545,2.199 0.371,2.476 0.284,2.784 0.284,3.126 c 0,0.375 0.107,0.726 0.32,1.053 0.213,0.326 0.524,0.574 0.934,0.743 0.409,0.169 0.863,0.254 1.364,0.254 0.552,0 1.038,-0.089 1.459,-0.267 C 4.782,4.731 5.106,4.47 5.333,4.125 5.559,3.78 5.681,3.39 5.698,2.953 L 4.754,2.882 C 4.704,3.353 4.532,3.707 4.239,3.947 3.947,4.187 3.515,4.308 2.943,4.308 2.348,4.308 1.914,4.198 1.642,3.98 1.369,3.763 1.233,3.499 1.233,3.191 1.233,2.925 1.329,2.704 1.522,2.532 1.711,2.359 2.206,2.183 3.006,2.002 3.806,1.82 4.355,1.663 4.653,1.527 5.085,1.328 5.405,1.075 5.612,0.769 5.818,0.463 5.921,0.11 5.921,-0.289 5.921,-0.685 5.808,-1.058 5.581,-1.408 5.354,-1.758 5.029,-2.03 4.604,-2.225 4.18,-2.419 3.702,-2.517 3.171,-2.517 2.498,-2.517 1.934,-2.418 1.479,-2.223 1.024,-2.026 0.667,-1.73 0.408,-1.337 0.15,-0.942 0.014,-0.497 0,0"
       style="fill:#000000;fill-opacity:1;fill-rule:nonzero;stroke:none"
       transform="matrix(1.3333333,0,0,-1.3333333,201.2568,744.128)" />
    <path
       id="path351"
       d="M 0,0 H 2.522 L 1.746,2.06 C 1.509,2.686 1.333,3.199 1.218,3.603 1.123,3.125 0.99,2.651 0.817,2.182 Z M -2.146,-3.055 0.71,4.384 H 1.771 L 4.815,-3.055 H 3.694 l -0.868,2.253 h -3.11 l -0.817,-2.253 z"
       style="fill:#000000;fill-opacity:1;fill-rule:nonzero;stroke:none"
       transform="matrix(1.3333333,0,0,-1.3333333,215.80173,743.2412)" />
    <path
       id="path352"
       d="m 0,0 v 0.873 l 3.151,0.005 v -2.76 C 2.667,-2.268 2.168,-2.558 1.654,-2.752 1.14,-2.946 0.612,-3.044 0.071,-3.044 c -0.731,0 -1.394,0.156 -1.991,0.47 -0.598,0.312 -1.048,0.764 -1.352,1.357 -0.305,0.592 -0.457,1.253 -0.457,1.984 0,0.723 0.151,1.399 0.454,2.027 0.303,0.627 0.738,1.093 1.306,1.397 0.569,0.305 1.223,0.457 1.964,0.457 0.538,0 1.024,-0.087 1.459,-0.261 C 1.888,4.213 2.229,3.97 2.476,3.659 2.723,3.348 2.911,2.941 3.04,2.441 L 2.151,2.197 C 2.04,2.576 1.901,2.874 1.735,3.091 1.569,3.307 1.333,3.48 1.025,3.61 0.717,3.74 0.375,3.806 0,3.806 -0.45,3.806 -0.839,3.737 -1.167,3.601 -1.495,3.463 -1.76,3.283 -1.961,3.06 -2.162,2.837 -2.319,2.592 -2.43,2.324 -2.62,1.864 -2.714,1.365 -2.714,0.827 c 0,-0.663 0.114,-1.218 0.342,-1.664 0.228,-0.446 0.561,-0.778 0.997,-0.994 0.437,-0.217 0.9,-0.325 1.39,-0.325 0.426,0 0.842,0.082 1.249,0.246 0.405,0.164 0.713,0.34 0.923,0.525 V 0 Z"
       style="fill:#000000;fill-opacity:1;fill-rule:nonzero;stroke:none"
       transform="matrix(1.3333333,0,0,-1.3333333,227.91107,743.4248)" />
    <path
       id="path353"
       d="M 0,0 H 2.116 C 2.565,0 2.917,0.047 3.171,0.14 3.425,0.232 3.618,0.382 3.75,0.586 3.881,0.791 3.947,1.014 3.947,1.254 3.947,1.605 3.82,1.895 3.564,2.121 3.309,2.348 2.905,2.461 2.354,2.461 H 0 Z m -0.984,-4.155 v 7.438 h 3.297 c 0.664,0 1.167,-0.067 1.513,-0.2 C 4.17,2.949 4.446,2.713 4.653,2.375 4.859,2.036 4.962,1.663 4.962,1.254 4.962,0.726 4.792,0.281 4.45,-0.081 4.108,-0.443 3.581,-0.673 2.867,-0.771 3.127,-0.896 3.325,-1.02 3.46,-1.142 3.748,-1.405 4.02,-1.735 4.277,-2.131 L 5.571,-4.155 H 4.333 l -0.984,1.548 c -0.288,0.446 -0.525,0.788 -0.711,1.024 -0.186,0.237 -0.352,0.402 -0.499,0.497 -0.148,0.095 -0.297,0.161 -0.45,0.198 -0.111,0.024 -0.294,0.035 -0.547,0.035 H 0 v -3.302 z"
       style="fill:#000000;fill-opacity:1;fill-rule:nonzero;stroke:none"
       transform="matrix(1.3333333,0,0,-1.3333333,235.37987,741.77373)" />
    <path
       id="path354"
       d="m 0,0 h 0.984 v -4.298 c 0,-0.747 -0.084,-1.341 -0.253,-1.781 -0.169,-0.44 -0.475,-0.797 -0.916,-1.072 -0.441,-0.277 -1.021,-0.414 -1.738,-0.414 -0.697,0 -1.267,0.12 -1.71,0.36 -0.443,0.24 -0.759,0.588 -0.949,1.043 -0.189,0.455 -0.284,1.076 -0.284,1.864 V 0 h 0.985 v -4.293 c 0,-0.645 0.06,-1.122 0.18,-1.428 0.12,-0.306 0.326,-0.542 0.619,-0.708 0.292,-0.166 0.65,-0.249 1.073,-0.249 0.724,0 1.239,0.164 1.548,0.492 C -0.154,-5.857 0,-5.227 0,-4.293 Z"
       style="fill:#000000;fill-opacity:1;fill-rule:nonzero;stroke:none"
       transform="matrix(1.3333333,0,0,-1.3333333,250.5608,737.39613)" />
    <path
       id="path355"
       d="m 0,0 h 1.923 c 0.636,0 1.087,0.119 1.354,0.355 0.268,0.238 0.401,0.571 0.401,1 C 3.678,1.666 3.6,1.933 3.442,2.154 3.285,2.376 3.078,2.522 2.821,2.593 2.655,2.637 2.349,2.659 1.902,2.659 H 0 Z M -0.984,-3.901 V 3.537 H 1.821 C 2.315,3.537 2.692,3.513 2.953,3.466 3.318,3.405 3.624,3.289 3.871,3.118 4.118,2.947 4.317,2.708 4.467,2.4 4.618,2.093 4.693,1.754 4.693,1.386 4.693,0.753 4.492,0.218 4.089,-0.221 3.687,-0.658 2.959,-0.877 1.908,-0.877 H 0 v -3.024 z"
       style="fill:#000000;fill-opacity:1;fill-rule:nonzero;stroke:none"
       transform="matrix(1.3333333,0,0,-1.3333333,255.37133,742.1124)" />
    <path
       id="path356"
       d="M 0,0 H 2.522 L 1.746,2.06 C 1.509,2.686 1.333,3.199 1.218,3.603 1.123,3.125 0.99,2.651 0.817,2.182 Z M -2.146,-3.055 0.71,4.384 H 1.771 L 4.815,-3.055 H 3.694 l -0.868,2.253 h -3.11 l -0.817,-2.253 z"
       style="fill:#000000;fill-opacity:1;fill-rule:nonzero;stroke:none"
       transform="matrix(1.3333333,0,0,-1.3333333,264.0432,743.2412)" />
    <path
       id="path357"
       d="M 0,0 H 1.588 C 2.079,0 2.463,0.046 2.742,0.137 3.021,0.229 3.244,0.356 3.41,0.522 3.643,0.756 3.825,1.069 3.955,1.464 4.085,1.857 4.15,2.336 4.15,2.897 4.15,3.675 4.022,4.272 3.767,4.69 3.512,5.108 3.202,5.389 2.836,5.53 2.572,5.632 2.148,5.683 1.562,5.683 H 0 Z m -0.984,-0.878 v 7.439 h 2.562 c 0.578,0 1.02,-0.037 1.324,-0.107 C 3.328,6.355 3.692,6.178 3.993,5.921 4.385,5.59 4.679,5.166 4.873,4.65 5.068,4.134 5.165,3.545 5.165,2.882 5.165,2.316 5.099,1.816 4.967,1.38 4.835,0.943 4.666,0.582 4.46,0.297 4.253,0.011 4.028,-0.214 3.782,-0.378 3.537,-0.542 3.241,-0.667 2.895,-0.751 2.548,-0.836 2.149,-0.878 1.7,-0.878 Z"
       style="fill:#000000;fill-opacity:1;fill-rule:nonzero;stroke:none"
       transform="matrix(1.3333333,0,0,-1.3333333,272.82453,746.1436)" />
    <path
       id="path358"
       d="m 0,0 c 0,-0.896 0.241,-1.603 0.723,-2.118 0.482,-0.516 1.087,-0.774 1.814,-0.774 0.741,0 1.35,0.26 1.829,0.782 0.479,0.52 0.718,1.259 0.718,2.216 0,0.606 -0.103,1.134 -0.307,1.586 C 4.572,2.144 4.273,2.494 3.879,2.742 3.485,2.991 3.042,3.115 2.552,3.115 1.855,3.115 1.256,2.876 0.753,2.397 0.251,1.919 0,1.12 0,0 m -1.015,0.016 c 0,1.234 0.332,2.201 0.994,2.899 0.664,0.698 1.52,1.048 2.568,1.048 0.687,0 1.306,-0.164 1.857,-0.492 C 4.956,3.143 5.375,2.685 5.665,2.098 5.954,1.511 6.099,0.846 6.099,0.102 6.099,-0.652 5.946,-1.327 5.642,-1.923 5.338,-2.519 4.906,-2.969 4.348,-3.275 3.79,-3.581 3.188,-3.734 2.542,-3.734 c -0.7,0 -1.326,0.169 -1.877,0.507 -0.552,0.338 -0.969,0.8 -1.253,1.385 -0.285,0.585 -0.427,1.204 -0.427,1.858"
       style="fill:#000000;fill-opacity:1;fill-rule:nonzero;stroke:none"
       transform="matrix(1.3333333,0,0,-1.3333333,282.4716,742.50427)" />
    <path
       id="path359"
       d="m 0,0 0.929,0.081 c 0.044,-0.372 0.146,-0.677 0.306,-0.916 0.161,-0.238 0.411,-0.431 0.749,-0.578 0.338,-0.148 0.719,-0.221 1.141,-0.221 0.376,0 0.708,0.056 0.995,0.168 0.287,0.112 0.502,0.265 0.642,0.459 0.14,0.195 0.21,0.406 0.21,0.637 0,0.233 -0.067,0.436 -0.202,0.611 C 4.634,0.415 4.411,0.562 4.1,0.68 3.9,0.758 3.458,0.879 2.775,1.043 2.092,1.207 1.613,1.361 1.339,1.507 0.984,1.693 0.72,1.924 0.545,2.199 0.371,2.476 0.284,2.784 0.284,3.126 c 0,0.375 0.107,0.726 0.32,1.053 0.213,0.326 0.524,0.574 0.934,0.743 0.409,0.169 0.863,0.254 1.364,0.254 0.552,0 1.038,-0.089 1.459,-0.267 C 4.782,4.731 5.106,4.47 5.333,4.125 5.559,3.78 5.681,3.39 5.698,2.953 L 4.754,2.882 C 4.704,3.353 4.532,3.707 4.239,3.947 3.947,4.187 3.515,4.308 2.943,4.308 2.348,4.308 1.914,4.198 1.642,3.98 1.369,3.763 1.233,3.499 1.233,3.191 1.233,2.925 1.329,2.704 1.522,2.532 1.711,2.359 2.206,2.183 3.006,2.002 3.806,1.82 4.355,1.663 4.653,1.527 5.085,1.328 5.405,1.075 5.612,0.769 5.818,0.463 5.921,0.11 5.921,-0.289 5.921,-0.685 5.808,-1.058 5.581,-1.408 5.354,-1.758 5.029,-2.03 4.604,-2.225 4.18,-2.419 3.702,-2.517 3.171,-2.517 2.498,-2.517 1.934,-2.418 1.479,-2.223 1.024,-2.026 0.667,-1.73 0.408,-1.337 0.15,-0.942 0.014,-0.497 0,0"
       style="fill:#000000;fill-opacity:1;fill-rule:nonzero;stroke:none"
       transform="matrix(1.3333333,0,0,-1.3333333,291.84787,744.128)" />
    <path
       id="path360"
       d="M 0,0 H 1.588 C 2.079,0 2.463,0.046 2.742,0.137 3.021,0.229 3.244,0.356 3.41,0.522 3.643,0.756 3.825,1.069 3.955,1.464 4.085,1.857 4.15,2.336 4.15,2.897 4.15,3.675 4.022,4.272 3.767,4.69 3.512,5.108 3.202,5.389 2.836,5.53 2.572,5.632 2.148,5.683 1.562,5.683 H 0 Z m -0.984,-0.878 v 7.439 h 2.562 c 0.578,0 1.02,-0.037 1.324,-0.107 C 3.328,6.355 3.692,6.178 3.993,5.921 4.385,5.59 4.679,5.166 4.873,4.65 5.068,4.134 5.165,3.545 5.165,2.882 5.165,2.316 5.099,1.816 4.967,1.38 4.835,0.943 4.666,0.582 4.46,0.297 4.253,0.011 4.028,-0.214 3.782,-0.378 3.537,-0.542 3.241,-0.667 2.895,-0.751 2.548,-0.836 2.149,-0.878 1.7,-0.878 Z"
       style="fill:#000000;fill-opacity:1;fill-rule:nonzero;stroke:none"
       transform="matrix(1.3333333,0,0,-1.3333333,145.39547,764.81027)" />
    <path
       id="path361"
       d="M 0,0 V 7.438 H 5.378 V 6.561 H 0.984 V 4.282 H 5.1 V 3.409 H 0.984 V 0.878 H 5.551 V 0 Z"
       style="fill:#000000;fill-opacity:1;fill-rule:nonzero;stroke:none"
       transform="matrix(1.3333333,0,0,-1.3333333,154.11547,765.9808)" />
    <path
       id="path362"
       d="m 0,0 0.929,0.081 c 0.044,-0.372 0.146,-0.677 0.306,-0.916 0.161,-0.238 0.411,-0.431 0.749,-0.578 0.338,-0.148 0.719,-0.221 1.141,-0.221 0.376,0 0.708,0.056 0.995,0.168 0.287,0.112 0.502,0.265 0.642,0.459 0.14,0.195 0.21,0.406 0.21,0.637 0,0.233 -0.067,0.436 -0.202,0.611 C 4.634,0.415 4.411,0.562 4.1,0.68 3.9,0.758 3.458,0.879 2.775,1.043 2.092,1.207 1.613,1.361 1.339,1.507 0.984,1.693 0.72,1.924 0.545,2.199 0.371,2.476 0.284,2.784 0.284,3.126 c 0,0.375 0.107,0.726 0.32,1.053 0.213,0.326 0.524,0.574 0.934,0.743 0.409,0.169 0.863,0.254 1.364,0.254 0.552,0 1.038,-0.089 1.459,-0.267 C 4.782,4.731 5.106,4.47 5.333,4.125 5.559,3.78 5.681,3.39 5.698,2.953 L 4.754,2.882 C 4.704,3.353 4.532,3.707 4.239,3.947 3.947,4.187 3.515,4.308 2.943,4.308 2.348,4.308 1.914,4.198 1.642,3.98 1.369,3.763 1.233,3.499 1.233,3.191 1.233,2.925 1.329,2.704 1.522,2.532 1.711,2.359 2.206,2.183 3.006,2.002 3.806,1.82 4.355,1.663 4.653,1.527 5.085,1.328 5.405,1.075 5.612,0.769 5.818,0.463 5.921,0.11 5.921,-0.289 5.921,-0.685 5.808,-1.058 5.581,-1.408 5.354,-1.758 5.029,-2.03 4.604,-2.225 4.18,-2.419 3.702,-2.517 3.171,-2.517 2.498,-2.517 1.934,-2.418 1.479,-2.223 1.024,-2.026 0.667,-1.73 0.408,-1.337 0.15,-0.942 0.014,-0.497 0,0"
       style="fill:#000000;fill-opacity:1;fill-rule:nonzero;stroke:none"
       transform="matrix(1.3333333,0,0,-1.3333333,166.73267,762.79467)" />
    <path
       id="path363"
       d="M 0,0 H 2.522 L 1.746,2.06 C 1.509,2.686 1.333,3.199 1.218,3.603 1.123,3.125 0.99,2.651 0.817,2.182 Z M -2.146,-3.055 0.71,4.384 H 1.771 L 4.815,-3.055 H 3.694 l -0.868,2.253 h -3.11 l -0.817,-2.253 z"
       style="fill:#000000;fill-opacity:1;fill-rule:nonzero;stroke:none"
       transform="matrix(1.3333333,0,0,-1.3333333,178.19227,761.90787)" />
    <path
       id="path364"
       d="M 0,0 V 7.438 H 1.01 L 4.917,1.599 V 7.438 H 5.86 V 0 H 4.851 L 0.944,5.845 V 0 Z"
       style="fill:#000000;fill-opacity:1;fill-rule:nonzero;stroke:none"
       transform="matrix(1.3333333,0,0,-1.3333333,185.64733,765.9808)" />
    <path
       id="path365"
       d="M 0,0 V 7.438 H 0.984 V 0.878 H 4.647 V 0 Z"
       style="fill:#000000;fill-opacity:1;fill-rule:nonzero;stroke:none"
       transform="matrix(1.3333333,0,0,-1.3333333,199.46253,765.9808)" />
    <path
       id="path366"
       d="m 0,0 h 0.984 v -4.298 c 0,-0.747 -0.084,-1.341 -0.253,-1.781 -0.169,-0.44 -0.475,-0.797 -0.916,-1.072 -0.441,-0.277 -1.021,-0.414 -1.738,-0.414 -0.697,0 -1.267,0.12 -1.71,0.36 -0.443,0.24 -0.759,0.588 -0.949,1.043 -0.189,0.455 -0.284,1.076 -0.284,1.864 V 0 h 0.985 v -4.293 c 0,-0.645 0.06,-1.122 0.18,-1.428 0.12,-0.306 0.326,-0.542 0.619,-0.708 0.292,-0.166 0.65,-0.249 1.073,-0.249 0.724,0 1.239,0.164 1.548,0.492 C -0.154,-5.857 0,-5.227 0,-4.293 Z"
       style="fill:#000000;fill-opacity:1;fill-rule:nonzero;stroke:none"
       transform="matrix(1.3333333,0,0,-1.3333333,213.73013,756.0628)" />
    <path
       id="path367"
       d="m 163.089,32.678 h 0.984 V 25.24 h -0.984 z"
       style="fill:#000000;fill-opacity:1;fill-rule:nonzero;stroke:none"
       transform="matrix(1.3333333,0,0,-1.3333333,0,799.63333)" />
    <path
       id="path368"
       d="m 0,0 0.929,0.081 c 0.044,-0.372 0.146,-0.677 0.306,-0.916 0.161,-0.238 0.411,-0.431 0.749,-0.578 0.338,-0.148 0.719,-0.221 1.141,-0.221 0.376,0 0.708,0.056 0.995,0.168 0.287,0.112 0.502,0.265 0.642,0.459 0.14,0.195 0.21,0.406 0.21,0.637 0,0.233 -0.067,0.436 -0.202,0.611 C 4.634,0.415 4.411,0.562 4.1,0.68 3.9,0.758 3.458,0.879 2.775,1.043 2.092,1.207 1.613,1.361 1.339,1.507 0.984,1.693 0.72,1.924 0.545,2.199 0.371,2.476 0.284,2.784 0.284,3.126 c 0,0.375 0.107,0.726 0.32,1.053 0.213,0.326 0.524,0.574 0.934,0.743 0.409,0.169 0.863,0.254 1.364,0.254 0.552,0 1.038,-0.089 1.459,-0.267 C 4.782,4.731 5.106,4.47 5.333,4.125 5.559,3.78 5.681,3.39 5.698,2.953 L 4.754,2.882 C 4.704,3.353 4.532,3.707 4.239,3.947 3.947,4.187 3.515,4.308 2.943,4.308 2.348,4.308 1.914,4.198 1.642,3.98 1.369,3.763 1.233,3.499 1.233,3.191 1.233,2.925 1.329,2.704 1.522,2.532 1.711,2.359 2.206,2.183 3.006,2.002 3.806,1.82 4.355,1.663 4.653,1.527 5.085,1.328 5.405,1.075 5.612,0.769 5.818,0.463 5.921,0.11 5.921,-0.289 5.921,-0.685 5.808,-1.058 5.581,-1.408 5.354,-1.758 5.029,-2.03 4.604,-2.225 4.18,-2.419 3.702,-2.517 3.171,-2.517 2.498,-2.517 1.934,-2.418 1.479,-2.223 1.024,-2.026 0.667,-1.73 0.408,-1.337 0.15,-0.942 0.014,-0.497 0,0"
       style="fill:#000000;fill-opacity:1;fill-rule:nonzero;stroke:none"
       transform="matrix(1.3333333,0,0,-1.3333333,220.63107,762.79467)" />
  </g>
</svg>
