<?xml version="1.0" encoding="UTF-8" standalone="no"?>
<!-- Created with Inkscape (http://www.inkscape.org/) -->

<svg
   width="169.23361mm"
   height="97.66243mm"
   viewBox="0 0 169.23361 97.66243"
   version="1.1"
   id="svg1"
   xml:space="preserve"
   xmlns:inkscape="http://www.inkscape.org/namespaces/inkscape"
   xmlns:sodipodi="http://sodipodi.sourceforge.net/DTD/sodipodi-0.dtd"
   xmlns="http://www.w3.org/2000/svg"
   xmlns:svg="http://www.w3.org/2000/svg"><sodipodi:namedview
     id="namedview1"
     pagecolor="#ffffff"
     bordercolor="#000000"
     borderopacity="0.25"
     inkscape:showpageshadow="2"
     inkscape:pageopacity="0.0"
     inkscape:pagecheckerboard="0"
     inkscape:deskcolor="#d1d1d1"
     inkscape:document-units="mm"><inkscape:page
       x="0"
       y="1.9905037e-37"
       width="169.23361"
       height="97.66243"
       id="page2"
       margin="0"
       bleed="0" /></sodipodi:namedview><defs
     id="defs1" /><g
     inkscape:label="Capa 1"
     inkscape:groupmode="layer"
     id="layer1"
     transform="translate(-21.676402,-84.362841)"><path
       style="fill:#ffffff;fill-opacity:1"
       d="m 94.426629,181.93583 c -1.464676,-0.4804 -2.324757,-1.84286 -2.449408,-3.88011 -0.2329,-3.80646 1.571856,-8.24758 3.819699,-9.39947 0.409106,-0.20964 1.233495,-0.2868 1.703942,-0.15947 0.903772,0.24461 1.424266,0.93528 1.57297,2.08725 l 0.09614,0.74473 -0.263367,0.23532 c -0.37788,0.33764 -0.799412,0.39649 -1.234417,0.17235 -0.191825,-0.0988 -0.431508,-0.24003 -0.532628,-0.31375 -0.17704,-0.12907 -0.197152,-0.11734 -0.542567,0.31638 -1.363891,1.71257 -2.271004,6.33636 -1.443561,7.35821 l 0.147443,0.18209 0.352254,-0.17971 c 0.193739,-0.0988 1.01523,-0.82529 1.825535,-1.61434 0.855356,-0.83292 1.567461,-1.45827 1.697827,-1.49099 0.78427,-0.19684 1.216089,0.8286 0.821588,1.95103 -0.449179,1.278 -2.080537,3.1485 -3.250085,3.72652 -0.524771,0.25936 -0.740317,0.31686 -1.296972,0.34602 -0.42995,0.0225 -0.794615,-0.007 -1.024388,-0.0821 z m -11.792884,-0.94901 c -0.873729,-0.37845 -1.276236,-1.28547 -1.53692,-3.46334 -0.168091,-1.40431 -0.158286,-7.2492 0.01292,-7.70158 0.330542,-0.87339 1.439424,-0.95971 1.855349,-0.14443 0.333665,0.65403 0.620388,2.30775 0.739151,4.26317 0.03086,0.50807 0.08121,0.8934 0.111892,0.8563 0.03068,-0.0371 0.18235,-0.41036 0.337039,-0.82946 0.934996,-2.53319 1.928506,-4.13444 2.830265,-4.56157 0.505739,-0.23955 1.217638,-0.21525 1.682937,0.0574 1.355261,0.79424 2.026995,2.79026 2.042937,6.07047 0.0087,1.7944 -0.101991,2.29113 -0.602615,2.70379 -0.272968,0.225 -0.381653,0.25954 -0.816689,0.25954 -0.470956,0 -0.520651,-0.0198 -0.80802,-0.32188 -0.476155,-0.50054 -0.578434,-1.0004 -0.765699,-3.74212 -0.04612,-0.67521 -0.116453,-1.34196 -0.156299,-1.48166 l -0.07245,-0.254 -0.173116,0.33866 c -0.261309,0.5112 -1.060866,2.58393 -1.420721,3.683 -0.641271,1.95857 -1.162392,3.35159 -1.365562,3.65029 -0.252087,0.37063 -0.923475,0.7536 -1.313194,0.74907 -0.156681,-0.002 -0.418225,-0.0611 -0.581208,-0.13168 z m 32.001875,-0.0593 c -0.21773,-0.11515 -0.48207,-0.36068 -0.64887,-0.60272 -0.57129,-0.82901 -0.753,-1.99426 -0.88436,-5.67121 -0.10609,-2.96969 -0.0412,-4.43543 0.22091,-4.98772 0.29596,-0.62369 1.12831,-0.74818 1.58503,-0.23707 0.42436,0.4749 0.71803,1.83035 0.91915,4.24234 0.0524,0.62865 0.10709,1.155 0.12149,1.16965 0.0144,0.0147 0.0921,-0.17584 0.17273,-0.42333 0.36355,-1.1163 1.06407,-2.65341 1.61345,-3.54032 0.73663,-1.18919 1.29504,-1.61387 2.13594,-1.62442 0.61775,-0.008 1.02237,0.16625 1.47894,0.63603 0.99976,1.02868 1.50037,2.92637 1.50037,5.68756 0,2.23278 -0.33073,2.92083 -1.40397,2.92083 -1.02395,0 -1.3954,-0.74599 -1.51768,-3.048 -0.0723,-1.36192 -0.20298,-2.56583 -0.28762,-2.65047 -0.13117,-0.13117 -0.88977,1.79211 -2.07924,5.27147 -0.72092,2.10875 -0.77679,2.23678 -1.11743,2.56034 -0.5316,0.50496 -1.20618,0.61573 -1.80884,0.29704 z m 12.32112,-0.10792 c -0.41353,-0.21463 -0.71575,-0.55466 -0.97309,-1.09479 -0.37917,-0.79586 -0.5222,-1.7814 -0.58226,-4.01217 l -0.0533,-1.98017 -0.44504,-0.11374 c -0.83234,-0.2127 -1.14372,-0.59422 -0.95404,-1.16895 0.19363,-0.5867 0.75649,-0.84708 1.22878,-0.56843 l 0.2973,0.17542 4.8e-4,-0.39932 c 5.6e-4,-0.46273 0.21185,-3.01058 0.34206,-4.12464 0.19518,-1.66999 0.44314,-2.45311 0.84479,-2.66807 0.25993,-0.13911 0.72193,-0.0956 0.95821,0.0903 0.12157,0.0956 0.2583,0.3147 0.30383,0.48683 0.16245,0.61406 0.25996,2.09517 0.25996,3.94849 0,1.03505 0.0201,1.90206 0.0448,1.92668 0.0246,0.0246 0.26274,-0.007 0.52916,-0.0692 0.26642,-0.0627 0.68383,-0.1146 0.92757,-0.11532 0.37106,-0.001 0.48815,0.0389 0.71967,0.24573 0.23426,0.20931 0.2765,0.30496 0.2765,0.62611 0,0.25591 -0.0532,0.43783 -0.16372,0.55996 -0.23482,0.25947 -0.99067,0.67433 -1.64427,0.90247 l -0.56268,0.1964 -0.0273,0.78717 c -0.0343,0.98781 0.12445,3.24017 0.28123,3.98953 0.0652,0.31176 0.17767,0.65118 0.24986,0.75425 0.31768,0.45354 0.0551,1.38743 -0.46395,1.65007 -0.29182,0.14766 -1.08971,0.13361 -1.39445,-0.0246 z m -53.405158,-0.54036 c -1.509734,-0.48254 -2.637998,-2.00536 -3.071188,-4.14518 -0.109716,-0.54196 -0.1347,-0.98695 -0.104577,-1.86266 0.03465,-1.00743 0.07297,-1.24907 0.307942,-1.94212 0.386625,-1.14034 0.850343,-1.87721 1.743969,-2.77123 0.999262,-0.9997 1.752354,-1.40008 2.736764,-1.45501 0.946089,-0.0528 1.493077,0.16911 2.227662,0.90369 0.414868,0.41487 0.604837,0.68346 0.7403,1.04666 0.797193,2.13746 -0.412456,3.9659 -3.118709,4.71408 -0.34925,0.0965 -0.893377,0.19976 -1.209171,0.22935 -0.315794,0.0296 -0.586929,0.0768 -0.602522,0.1049 -0.06183,0.11142 0.204415,1.13368 0.420912,1.61609 0.30196,0.67286 0.742679,1.07061 1.274655,1.15039 0.518818,0.0778 2.569929,-0.0196 3.501891,-0.16631 0.868374,-0.13669 1.116723,-0.0726 1.311887,0.3387 0.214322,0.45165 0.05815,0.82718 -0.450472,1.08321 -0.665097,0.3348 -2.393389,1.00085 -3.019513,1.16366 -0.792168,0.20599 -2.03147,0.2022 -2.68983,-0.008 z m 0.913263,-7.53111 c 0.674795,-0.31565 1.239951,-0.73355 1.402319,-1.03694 0.06252,-0.11681 0.04183,-0.25619 -0.07831,-0.52779 -0.208017,-0.47026 -0.286293,-0.5138 -0.616601,-0.34299 -0.618558,0.31987 -1.397506,1.22991 -1.726308,2.01685 l -0.136643,0.32703 0.238387,-0.0593 c 0.131113,-0.0326 0.543832,-0.20221 0.917154,-0.37683 z m 28.457775,7.48807 c -1.02444,-0.42119 -1.69972,-1.32902 -1.80049,-2.42051 -0.17913,-1.94034 1.5457,-5.97815 3.30995,-7.74859 0.9205,-0.92373 1.43017,-1.1712 2.42217,-1.17606 0.65291,-0.003 0.76076,0.0197 1.07782,0.22936 0.19951,0.1319 0.4302,0.38559 0.53187,0.58488 l 0.17956,0.35196 0.21057,-0.26906 c 0.28376,-0.36258 0.65297,-0.53924 1.127,-0.53924 0.50751,0 0.86503,0.18908 1.11366,0.58898 0.19472,0.3132 0.19974,0.37515 0.25253,3.11356 0.0296,1.5367 0.0829,3.44304 0.1184,4.23633 0.0727,1.62505 0.0197,1.9304 -0.39607,2.28023 -0.19407,0.16329 -0.35031,0.21444 -0.65511,0.21444 -0.92587,0 -1.59994,-0.84473 -1.80561,-2.26273 l -0.101,-0.6964 -0.48583,0.73873 c -0.96281,1.46398 -2.00203,2.46634 -2.90879,2.8056 -0.66878,0.25022 -1.53577,0.23776 -2.19063,-0.0315 z m 1.82188,-3.19956 c 0.60088,-0.5821 1.45707,-1.69982 2.01064,-2.62478 0.39992,-0.66824 1.5326,-2.92874 1.5326,-3.05864 0,-0.029 -0.0741,-0.0527 -0.16462,-0.0527 -0.0905,0 -0.27076,-0.0913 -0.40051,-0.20292 l -0.2359,-0.20291 -0.37146,0.26641 c -1.02182,0.73285 -2.34337,3.1572 -2.89167,5.3047 -0.29861,1.16955 -0.20404,1.2732 0.52092,0.57088 z m 28.54735,3.29081 c -1.00827,-0.32911 -1.77728,-1.2122 -1.9782,-2.27167 -0.25469,-1.34297 0.78037,-4.46468 2.21178,-6.67064 1.03891,-1.60109 2.21404,-2.46845 3.41868,-2.52333 0.7746,-0.0353 1.24456,0.18684 1.61196,0.7619 0.28589,0.44748 0.34612,0.48072 0.42437,0.23417 0.0967,-0.30479 0.64867,-0.59856 1.13161,-0.6023 0.55648,-0.004 0.92311,0.20787 1.18896,0.68808 0.2002,0.36162 0.20453,0.41067 0.18686,2.11902 -0.01,0.96186 0.0287,2.50783 0.0859,3.43548 0.19233,3.12055 0.12164,3.76929 -0.44255,4.06105 -0.30306,0.15671 -0.86546,0.1584 -1.16116,0.003 -0.29163,-0.15278 -0.72378,-0.61102 -0.88512,-0.93856 -0.13548,-0.27503 -0.28062,-0.86891 -0.36532,-1.49478 l -0.0533,-0.39413 -0.60146,0.90213 c -0.73564,1.10337 -1.6873,2.06771 -2.43172,2.4641 -0.48162,0.25647 -0.63589,0.295 -1.268,0.3167 -0.44445,0.0152 -0.85487,-0.0194 -1.07322,-0.0907 z m 1.4686,-3.15588 c 0.83439,-0.66957 2.07981,-2.46448 2.98693,-4.30476 0.71825,-1.45714 0.7541,-1.56633 0.51421,-1.56633 -0.0984,0 -0.27493,-0.096 -0.39232,-0.21344 l -0.21343,-0.21343 -0.22984,0.16366 c -0.65958,0.46966 -1.53653,1.64948 -2.04434,2.75037 -0.63126,1.36855 -1.18593,3.08114 -1.18593,3.6617 0,0.14989 0.0821,0.1095 0.56472,-0.27777 z M 30.610514,164.68595 c -1.422946,-0.18638 -2.329934,-0.99001 -2.718629,-2.40881 -0.148545,-0.54222 -0.154096,-0.73495 -0.417205,-14.48494 -0.139299,-7.27965 -0.139867,-7.26298 0.27823,-8.15706 0.259224,-0.55433 0.924176,-1.28357 1.454984,-1.59564 0.457238,-0.26881 0.750948,-0.22232 -2.496448,-0.39518 -1.350416,-0.0719 -2.607078,-0.17157 -2.792582,-0.22152 -0.893049,-0.24047 -1.696555,-0.87265 -2.01459,-1.58503 -0.112732,-0.25251 -0.189023,-0.63759 -0.212803,-1.07413 -0.03476,-0.63816 -0.02321,-0.69698 0.185627,-0.94517 1.550965,-1.84322 7.234453,-2.57565 13.597316,-1.75229 5.138701,0.66495 9.807514,2.43602 11.757377,4.46006 l 0.36971,0.38378 0.501788,-0.66593 c 2.509009,-3.3297 7.764372,-5.24785 12.63044,-4.60997 4.33104,0.56775 7.706147,2.87926 9.51913,6.51936 1.066188,2.14069 1.526911,5.05153 1.158807,7.32134 -0.72985,4.50042 -4.500476,8.09427 -9.566659,9.11813 -1.08611,0.2195 -3.930283,0.21983 -4.947901,5.7e-4 -3.954643,-0.85206 -6.948443,-3.16056 -8.880624,-6.84779 l -0.341877,-0.65241 -0.543773,0.69475 c -2.045893,2.61391 -5.335934,4.71976 -8.766926,5.61141 -0.666534,0.17322 -3.51883,0.71366 -3.766506,0.71366 -0.04633,0 -0.04721,0.92124 -0.0022,2.30717 0.10354,3.18938 0.08901,4.99963 -0.04502,5.60917 -0.248263,1.12906 -0.898765,1.95642 -1.896878,2.41259 -0.609666,0.27864 -1.220565,0.35157 -2.042774,0.24388 z m 31.364565,-15.57047 c 2.054236,-0.571 3.431391,-1.92641 3.954791,-3.89234 0.236169,-0.88706 0.19159,-2.84759 -0.08912,-3.91958 -0.323021,-1.23355 -0.797926,-2.07201 -1.664333,-2.93842 -0.82195,-0.82195 -1.640635,-1.30451 -2.751666,-1.62192 -0.888553,-0.25385 -2.662284,-0.2734 -3.513667,-0.0387 -2.912025,0.80269 -4.677259,3.18131 -4.688247,6.31731 -0.0041,1.1568 0.133093,1.75894 0.636371,2.794 0.2872,0.59067 0.488213,0.857 1.121401,1.48584 0.664447,0.65988 0.894808,0.82705 1.660475,1.20496 0.787478,0.38867 1.67188,0.66652 2.582334,0.81127 0.551024,0.0876 2.124817,-0.0282 2.751666,-0.2024 z m -2.751666,-2.6506 c -0.541432,-0.18003 -0.823132,-0.35661 -1.193471,-0.74811 -0.732387,-0.77424 -1.006039,-1.52228 -1.001378,-2.73729 0.004,-1.04149 0.214668,-1.6567 0.770984,-2.25145 0.549515,-0.58747 1.07412,-0.79179 2.016531,-0.78538 0.968623,0.007 1.558683,0.22055 2.183714,0.79179 1.069909,0.97784 1.364598,2.66879 0.713101,4.09185 -0.468919,1.02426 -1.387691,1.64822 -2.524757,1.71463 -0.390999,0.0228 -0.753213,-0.006 -0.964724,-0.076 z m -22.521332,1.47053 c 1.616446,-0.64778 2.835162,-1.40209 3.790716,-2.34623 0.732911,-0.72416 1.19391,-1.48978 1.420167,-2.35859 0.211807,-0.81333 0.170154,-1.33399 -0.154431,-1.93036 -0.736384,-1.35298 -3.138949,-2.37197 -7.020984,-2.97776 l -0.355865,-0.0555 0.0807,0.28138 c 0.102727,0.35819 0.102611,1.5201 -2.42e-4,2.41454 -0.133007,1.15666 -0.200087,4.19977 -0.133381,6.05083 l 0.063,1.74819 0.816494,-0.27751 c 0.449072,-0.15264 1.121294,-0.39966 1.493828,-0.54895 z m 16.374334,14.97882 c -2.016507,-0.21991 -3.404062,-1.31568 -3.720233,-2.93792 -0.31623,-1.62254 0.81453,-3.23923 2.588858,-3.70138 0.426322,-0.11104 1.403593,-0.1295 6.766994,-0.12778 7.283087,0.002 8.044866,0.039 8.828264,0.42464 0.95431,0.4698 1.332628,1.25364 1.278623,2.64919 -0.03971,1.02612 -0.280036,1.55387 -1.065117,2.33896 -0.587393,0.58739 -1.195128,0.95461 -2.053392,1.24075 -0.431501,0.14386 -0.88807,0.15629 -6.222999,0.16949 -3.166534,0.008 -6.046982,-0.0173 -6.400998,-0.0559 z m 122.150545,-0.71978 c -5.93462,-0.80818 -10.73746,-4.52056 -12.53701,-9.69054 -1.07822,-3.09763 -1.07634,-6.98914 0.005,-10.4235 1.97497,-6.27247 7.61906,-10.22826 14.20385,-9.95509 7.33435,0.30427 12.72548,5.45027 13.81042,13.18249 0.30964,2.20676 0.25626,5.17143 -0.12617,7.00689 -1.13372,5.44128 -5.2232,9.11963 -10.99285,9.88771 -1.11292,0.14815 -3.24546,0.14427 -4.36325,-0.008 z m -93.49219,-0.54387 c -1.057985,-0.22492 -2.236087,-1.10535 -2.647649,-1.97866 -0.513313,-1.08922 -0.572717,-1.99005 -0.400062,-6.06678 0.174483,-4.11988 0.298748,-8.32261 0.322937,-10.922 0.0167,-1.79452 -0.0013,-2.14257 -0.133707,-2.5802 -0.183297,-0.606 -0.683816,-1.15648 -1.195824,-1.31519 -0.210606,-0.0653 -1.009789,-0.11406 -2.116387,-0.12917 -3.160031,-0.0431 -4.543735,-0.42592 -5.037341,-1.39347 -0.250245,-0.49052 -0.305389,-1.37151 -0.134052,-2.14164 0.345786,-1.55424 1.553612,-2.56107 3.181727,-2.65225 2.323239,-0.13011 12.145957,-0.29909 16.298332,-0.28039 l 4.910667,0.0221 1.231705,-0.22187 c 5.204604,-0.93749 11.515554,-0.91472 14.346954,0.0517 2.62748,0.89688 4.52711,2.90718 5.2142,5.51797 0.24892,0.94584 0.31064,2.5031 0.13321,3.36092 -0.35815,1.73157 -1.0267,2.85036 -2.64625,4.42841 -0.77689,0.75699 -1.18272,1.21964 -1.29969,1.48167 -0.20383,0.4566 -0.22764,1.23125 -0.0508,1.65437 0.0676,0.16184 1.21102,1.85242 2.54089,3.75684 1.32987,1.90442 2.47975,3.62815 2.55528,3.83052 0.19053,0.51045 0.19013,1.4473 -8.6e-4,2.00171 -0.29689,0.8618 -1.32665,1.73986 -2.57315,2.19409 -0.46807,0.17057 -0.69267,0.20291 -1.24811,0.17974 -1.31372,-0.0548 -2.00229,-0.58229 -3.65043,-2.79635 -2.83638,-3.81032 -5.37912,-8.07611 -6.04102,-10.13465 -0.42589,-1.32452 -0.0381,-2.01661 2.11411,-3.77325 1.37869,-1.12527 1.7648,-1.64223 1.77313,-2.37402 0.004,-0.34789 -0.33488,-1.04606 -0.6706,-1.38178 -0.68938,-0.68938 -2.35608,-1.21654 -4.71936,-1.49267 l -0.44151,-0.0516 -0.0242,6.50069 -0.0242,6.50068 -0.22368,0.65566 c -0.51584,1.51207 -1.502633,2.44133 -2.852362,2.68609 -0.866018,0.15703 -1.830864,-0.10178 -2.574223,-0.69054 -0.442459,-0.35043 -0.946718,-1.13188 -1.187815,-1.84077 l -0.18925,-0.55644 0.03059,-6.477 0.03059,-6.477 -0.199921,-0.01 c -0.109957,-0.005 -1.433223,-0.0178 -2.940592,-0.0274 -2.737434,-0.0174 -2.741132,-0.0172 -3.132666,0.18429 -0.428357,0.22043 -0.729165,0.59856 -0.853025,1.0723 -0.04382,0.16759 -0.160192,4.32426 -0.258612,9.23705 -0.137439,6.86054 -0.20716,9.06933 -0.300593,9.523 -0.306236,1.48692 -1.178,2.42666 -2.598835,2.80147 -0.560117,0.14775 -1.874343,0.21786 -2.317573,0.12363 z m 39.37997,-1.17654 c -0.63155,-0.11858 -1.20974,-0.56577 -1.51497,-1.17171 -0.39965,-0.79339 -0.39517,-0.61099 -0.3053,-12.44017 0.05,-6.57933 0.11927,-11.32904 0.17059,-11.6941 0.208,-1.47982 0.84866,-2.32263 1.97111,-2.59307 0.57835,-0.13935 2.23874,-0.31575 3.4039,-0.36164 1.98315,-0.0781 3.40684,0.14514 4.65666,0.7302 1.29119,0.60442 2.08635,1.49159 2.54771,2.84249 0.38978,1.1413 0.28619,2.1021 -0.32194,2.98609 -0.52592,0.76447 -1.22218,1.08832 -3.05693,1.42182 -1.88438,0.34253 -3.0157,0.78072 -3.12842,1.21174 -0.12881,0.49258 0.62159,0.82488 2.39325,1.05977 2.10003,0.27843 2.66502,0.39072 3.1825,0.63249 0.65274,0.30496 1.08793,0.73946 1.39879,1.39654 0.21042,0.44479 0.24441,0.61748 0.24339,1.23665 -0.003,2.12436 -0.89339,3.33733 -2.77076,3.77668 -0.31474,0.0737 -1.13093,0.16345 -1.81376,0.19953 -1.02679,0.0542 -1.30965,0.0986 -1.63542,0.25629 -1.10825,0.53649 -1.19754,2.07688 -0.1793,3.09315 0.57481,0.5737 0.99768,0.69856 1.90048,0.56115 2.51952,-0.38346 4.70416,0.31537 5.39407,1.72548 0.42735,0.87348 0.17598,1.83548 -0.71848,2.74959 -1.15988,1.18537 -2.85359,1.86556 -5.59417,2.24663 -1.0645,0.14801 -5.62584,0.24652 -6.223,0.1344 z m 34.36143,-0.0135 c -0.89912,-0.1802 -1.60327,-0.78169 -2.82175,-2.4104 -3.04743,-4.07338 -5.69656,-8.73346 -5.66758,-9.96983 0.0175,-0.74751 0.46788,-1.35 1.88094,-2.51632 0.62328,-0.51445 1.25882,-1.11022 1.41229,-1.32393 0.87016,-1.21168 0.01,-2.5292 -2.02967,-3.10713 -1.97763,-0.56048 -4.88612,-0.69667 -7.28133,-0.34094 -1.55493,0.23093 -2.47443,0.0194 -2.95554,-0.67985 -0.48886,-0.71054 -0.84763,-2.38839 -0.6914,-3.2335 0.23115,-1.2504 1.01549,-1.71838 3.54339,-2.11418 2.78782,-0.43649 3.62746,-0.50027 6.62288,-0.50303 2.90862,-0.003 3.64258,0.0512 5.17925,0.38015 2.83268,0.6064 4.92405,2.62611 5.58268,5.39138 0.25705,1.07924 0.20188,2.66089 -0.12642,3.62385 -0.41686,1.22273 -0.82825,1.83424 -2.07188,3.07972 -0.68627,0.6873 -1.19304,1.26968 -1.2893,1.48167 -0.19121,0.42106 -0.20758,1.05076 -0.0379,1.45691 0.0684,0.16382 1.07324,1.65802 2.23286,3.32045 1.15962,1.66242 2.17041,3.1445 2.2462,3.29352 0.52774,1.03764 0.25856,2.33825 -0.64475,3.11519 -0.9504,0.81744 -2.17729,1.23779 -3.08299,1.05627 z m -15.36472,-0.67334 c -0.91707,-0.16167 -1.64046,-0.69527 -2.01541,-1.48663 -0.30002,-0.6332 -0.35935,-2.10308 -0.32451,-8.03976 0.0298,-5.07494 0.0335,-5.17276 0.2152,-5.63033 0.25343,-0.63827 0.61505,-1.04844 1.15891,-1.31453 0.39864,-0.19504 0.6292,-0.23605 1.75063,-0.31136 2.32441,-0.15612 3.18732,0.15146 3.73009,1.32955 l 0.19504,0.42334 0.028,5.715 c 0.0293,5.99594 0.016,6.26568 -0.34495,6.985 -0.8058,1.60583 -2.72519,2.62374 -4.39296,2.32972 z M 90.380744,126.08506 c -9.359899,-0.0321 -17.579917,-0.0866 -18.266707,-0.12097 -1.238105,-0.062 -1.250442,-0.0646 -1.452954,-0.30527 -0.360585,-0.42853 -0.484827,-1.47442 -0.296297,-2.49427 0.167266,-0.90483 0.571798,-1.44678 1.261578,-1.69015 0.596959,-0.21062 2.367239,-0.38126 3.955416,-0.38126 h 1.458073 l 0.298785,-0.26233 c 0.164333,-0.14429 0.687262,-0.83961 1.162066,-1.54517 0.474804,-0.70556 1.9157,-2.80683 3.20199,-4.66949 3.219118,-4.66159 3.132384,-4.5314 3.132384,-4.70156 0,-0.0837 -0.322908,-0.86264 -0.717572,-1.73097 -1.156283,-2.544 -1.598909,-3.83457 -1.918715,-5.59438 -0.246163,-1.35459 -0.273115,-4.407029 -0.0493,-5.583759 0.463917,-2.4391 1.402918,-4.65837 2.589648,-6.12046 1.465459,-1.80549 1.410849,-1.74729 2.466606,-2.62855 2.892892,-2.41472 6.267817,-3.708717 10.117666,-3.879264 1.246582,-0.05522 2.739029,0.05123 3.852339,0.274778 0.34925,0.07013 1.26365,0.340016 2.032,0.599746 2.72407,0.92085 5.01535,2.44651 6.56683,4.37258 0.3068,0.38088 1.08426,1.47355 1.72768,2.42817 0.64342,0.95462 1.28541,1.84483 1.42664,1.97824 l 0.25679,0.24258 0.20774,-0.41191 c 0.11426,-0.22655 0.42666,-0.92626 0.69421,-1.55491 0.66723,-1.5677 1.16032,-2.53814 1.71823,-3.38157 0.51871,-0.78415 1.58895,-1.90602 2.05126,-2.15019 0.28858,-0.15241 0.30369,-0.1519 0.77989,0.0268 0.66321,0.24886 1.44295,0.78512 1.75136,1.2045 0.14071,0.19133 0.39715,0.71334 0.56987,1.16001 0.17273,0.44667 0.45438,1.17408 0.6259,1.61646 0.17152,0.44238 0.71472,1.69968 1.20713,2.794 0.4924,1.09432 3.33746,7.457019 6.32237,14.139329 2.9849,6.68232 5.56854,12.39408 5.74143,12.69282 0.17288,0.29873 0.41321,0.61609 0.53407,0.70525 0.26781,0.19757 1.36198,0.31049 3.05137,0.31491 1.47776,0.004 1.89224,0.12392 2.49446,0.72249 0.5779,0.5744 0.74431,1.06837 0.6949,2.06271 -0.0283,0.56951 -0.0897,0.8496 -0.27737,1.26488 -0.13256,0.29336 -0.30865,0.56959 -0.39132,0.61383 -0.16781,0.0898 -23.21674,0.0863 -50.580445,-0.008 z m 15.285966,-4.87773 1.31596,-0.0546 -0.40265,-2.16764 c -0.22147,-1.1922 -0.50391,-2.71056 -0.62765,-3.37413 l -0.22498,-1.2065 h -0.23891 c -0.1314,0 -0.6888,0.13889 -1.23866,0.30865 -3.3049,1.02031 -3.92611,1.16595 -5.573883,1.30676 -2.621587,0.22404 -5.159833,-0.35374 -8.24575,-1.87696 -1.764646,-0.87104 -1.549392,-0.89766 -2.799527,0.34622 -1.282641,1.27622 -2.810456,3.2878 -3.66695,4.82806 -0.320864,0.57702 -0.737299,1.60509 -0.737299,1.8202 0,0.10965 1.302439,0.12503 10.562166,0.12479 5.809192,-1.6e-4 11.154343,-0.0249 11.878133,-0.0549 z m 24.35671,-0.0748 c 0.0803,-0.025 0.078,-0.10385 -0.01,-0.35326 -0.19787,-0.56078 -1.04226,-2.50136 -2.29922,-5.28403 -0.67043,-1.4842 -1.86359,-4.19417 -2.65147,-6.02215 -3.63535,-8.43447 -5.25019,-11.903379 -6.26456,-13.457249 -0.47795,-0.73213 -0.57266,-0.81412 -0.74336,-0.64342 -0.18944,0.18945 -3.39868,6.144849 -4.46159,8.279409 -1.54402,3.10076 -2.41651,5.29489 -2.9459,7.40834 -0.31079,1.24077 -0.40055,2.69985 -0.24742,4.02223 0.21748,1.87811 0.71824,4.57013 1.07121,5.75872 l 0.12888,0.43398 9.16001,-0.0552 c 5.03801,-0.0304 9.20653,-0.0697 9.26337,-0.0874 z m -31.30301,-9.43967 c 2.21927,-0.19493 4.25625,-0.94904 6.01133,-2.22545 1.18111,-0.85899 2.69485,-2.66316 3.3826,-4.0316 0.99847,-1.98671 1.46275,-4.59969 1.1951,-6.726049 -0.83995,-6.67316 -7.4107,-11.25128 -13.933363,-9.70794 -3.222036,0.76237 -5.99163,2.72768 -7.597641,5.39131 -2.610755,4.33004 -1.761948,10.271819 2.006644,14.046809 1.835621,1.83874 4.237972,3.0118 6.649331,3.24686 1.032824,0.10067 1.20369,0.10113 2.285999,0.006 z"
       id="path1" /></g></svg>
