<?xml version="1.0" encoding="UTF-8" standalone="no"?>
<!-- Created with Inkscape (http://www.inkscape.org/) -->

<svg
   width="184.89458mm"
   height="143.66891mm"
   viewBox="0 0 184.89458 143.66892"
   version="1.1"
   id="svg1"
   xml:space="preserve"
   sodipodi:docname="logoJuanaKoslay.svg"
   xmlns:inkscape="http://www.inkscape.org/namespaces/inkscape"
   xmlns:sodipodi="http://sodipodi.sourceforge.net/DTD/sodipodi-0.dtd"
   xmlns="http://www.w3.org/2000/svg"
   xmlns:svg="http://www.w3.org/2000/svg"><sodipodi:namedview
     id="namedview1"
     pagecolor="#ffffff"
     bordercolor="#000000"
     borderopacity="0.25"
     inkscape:showpageshadow="2"
     inkscape:pageopacity="0.0"
     inkscape:pagecheckerboard="0"
     inkscape:deskcolor="#d1d1d1"
     inkscape:document-units="mm"><inkscape:page
       x="0"
       y="-1.643383e-28"
       width="184.89458"
       height="143.66891"
       id="page1"
       margin="0"
       bleed="0" /></sodipodi:namedview><defs
     id="defs1" /><g
     id="g1"
     inkscape:groupmode="layer"
     inkscape:label="1"
     transform="matrix(0.26458332,0,0,0.26458334,260.96596,-194.67366)"><path
       style="fill:#ffffff;fill-opacity:1"
       d="m -920.75805,1277.8883 c -0.90901,-1.4708 1.02016,-2.43 24.92997,-12.3949 70.58027,-29.4158 99.91206,-37.865 131.50001,-37.8796 20.25181,-0.01 34.83941,3.5983 59.81452,14.7924 10.50499,4.7084 12.70914,5.3729 15.00001,4.5225 1.47701,-0.5483 8.31048,-3.4556 15.18548,-6.4608 36.31637,-15.8743 69.7096,-25.5865 99.02679,-28.8014 14.92363,-1.6364 40.84959,-0.5792 62.21479,2.5371 30.72615,4.4816 48.72171,8.3234 105.75845,22.5777 42.50645,10.6229 74.48174,17.9642 93.5,21.4667 7.7,1.4181 14.9728,2.7904 16.16178,3.0496 2.4851,0.5417 10.74061,13.9864 9.91279,16.1437 -0.42709,1.1129 -39.22804,1.2955 -230.71069,1.0858 -153.9872,-0.1687 -230.3088,-0.5868 -230.53417,-1.2629 -0.18531,-0.5559 7.9897,-5.1668 18.16667,-10.2465 10.17697,-5.0797 18.50359,-9.6113 18.50359,-10.0703 0,-1.7673 -15.78911,-7.9567 -28.91919,-11.3365 -10.16919,-2.6176 -31.75076,-3.0916 -44.08082,-0.9681 -20.63702,3.5541 -46.56161,11.7695 -81.15072,25.7163 l -20.87192,8.4159 h -16.42967 c -9.03631,0 -16.67627,-0.399 -16.97767,-0.8867 z m -38.92073,-33.8718 c -0.323,-0.5225 4.0445,-9.0031 9.7054,-18.8458 36.53097,-63.5165 35.84646,-62.3958 38.11029,-62.3958 1.20159,0 5.41125,1.0974 9.3548,2.4387 14.97968,5.0949 26.46691,6.9083 43.68022,6.8952 22.84201,-0.017 31.80974,-2.2642 58,-14.5326 54.05476,-25.3209 88.60382,-33.865 131.37898,-32.4906 51.26356,1.6473 102.86261,14.3924 199.12105,49.1837 46.4297,16.7814 55.43058,19.9309 78.00001,27.2928 21.99343,7.1741 49.61315,14.9388 63,17.7112 4.125,0.8542 8.25056,1.7852 9.16791,2.0688 2.21257,0.6839 13.32355,20.3414 12.15696,21.508 -0.97762,0.9776 -18.22737,-1.6782 -32.82487,-5.0538 -24.81871,-5.7391 -61.99196,-17.3911 -107.00001,-33.539 -86.92952,-31.1885 -105.86961,-37.4113 -141.46728,-46.479 -22.33163,-5.6886 -55.8244,-11.015 -78.53274,-12.4893 -22.4122,-1.4551 -51.11742,2.9488 -77.99627,11.9662 -21.87902,7.34 -37.6008,14.4219 -82.10522,36.9845 -43.67969,22.1445 -59.81504,29.5782 -80.89853,37.2704 -21.50893,7.8475 -49.4787,14.7265 -50.8507,12.5064 z m 445.85074,-169.5926 c -12.73838,-4.2148 -21.75801,-12.0055 -27.37918,-23.649 -3.54328,-7.3393 -3.62083,-7.757 -3.62083,-19.5 0,-11.4142 0.15547,-12.3281 3.18498,-18.7233 10.03908,-21.19195 35.40135,-31.0768 58.02135,-22.61357 6.47816,2.42379 16.69807,11.52517 16.13687,14.37077 -0.18875,0.9571 -2.90716,3.5521 -6.0409,5.7668 l -5.6977,4.0266 -4.16273,-3.7608 c -5.58815,-5.0486 -9.61997,-6.5665 -17.44186,-6.5665 -8.07936,0 -12.72164,1.8432 -18.23337,7.2393 -5.37028,5.2576 -7.75359,11.884 -7.64678,21.2607 0.19337,16.9769 12.38248,28.6844 28.35641,27.2359 6.74945,-0.612 10.70959,-2.4819 15.32816,-7.2374 1.86869,-1.9242 4.25216,-3.4873 5.2966,-3.4737 2.98093,0.039 11.39898,6.6937 11.39898,9.0113 0,3.1777 -8.45273,10.8113 -15.79929,14.2681 -6.00001,2.8231 -7.79871,3.1798 -17.20071,3.4105 -6.70061,0.1645 -11.94739,-0.2212 -14.5,-1.0657 z m -471.83334,-0.3156 c -0.3667,-0.3667 -0.6667,-19.7237 -0.6667,-43.0156 v -42.3489 l 28.25,0.26558 28.25,0.26557 0.2936,6.09137 c 0.20399,4.23218 -0.12396,6.43788 -1.07446,7.22678 -0.88293,0.7327 -7.902,1.2323 -19.79364,1.4086 l -18.4255,0.2732 -0.2902,11.5 c -0.4414,17.4915 -2.1598,15.9031 17.5532,16.2259 l 16.737,0.2741 0.295,6.7197 c 0.35861,8.1687 1.47811,7.7023 -19.295,8.038 l -15,0.2423 -0.308,4.8277 c -0.4922,7.7167 -0.6154,7.6723 21.3235,7.6723 16.6497,0 19.35308,0.2152 19.87751,1.5818 1.05547,2.7505 0.6566,10.9686 -0.59301,12.2182 -0.87543,0.8755 -8.67407,1.2 -28.8333,1.2 -15.1984,0 -27.9334,-0.3 -28.3,-0.6666 z m 82.01547,0.015 c -0.37519,-0.3752 -0.68217,-19.684 -0.68217,-42.9085 0,-37.58244 0.17396,-42.29313 1.58179,-42.83336 3.07166,-1.17871 14.13704,-0.65071 15.28227,0.72921 0.75188,0.90595 1.19379,12.25605 1.37245,35.24995 l 0.2635,33.9138 19,0.556 c 10.45,0.3058 19.13221,0.6433 19.29381,0.75 0.16159,0.1067 0.16159,3.4565 0,7.444 l -0.29381,7.25 -27.56784,0.2655 c -15.16231,0.1461 -27.87481,-0.042 -28.25,-0.4166 z m 127.71669,-2.5351 c -1.57521,-3.0375 -8.95174,-19.2846 -29.08491,-64.0608 -4.14159,-9.21092 -7.27063,-17.42342 -6.95343,-18.25003 0.7517,-1.95892 15.83819,-2.17789 17.42503,-0.25292 1.4584,1.76917 12.84151,27.42655 17.19175,38.74995 2.00734,5.225 4.04364,9.4171 4.52511,9.3157 0.48147,-0.1014 2.29733,-4.1514 4.03526,-9 4.43111,-12.3623 16.13231,-38.48939 17.67654,-39.46919 1.87645,-1.19059 14.55517,-1.02865 15.31178,0.19557 0.35421,0.57312 -3.09585,9.68562 -7.66679,20.25002 -21.48463,49.6553 -28.45002,65.0811 -29.55052,65.4433 -0.65524,0.2157 -1.96466,-1.099 -2.90982,-2.9216 z m 85.60116,2.5624 c -9.6978,-3.0121 -12.54344,-4.2254 -17.11647,-7.2974 -6.34698,-4.2638 -12.08222,-11.521 -15.0776,-19.0788 -3.27214,-8.256 -3.65868,-21.9275 -0.85792,-30.3437 7.63683,-22.94871 32.85202,-34.81024 56.61766,-26.63366 20.1059,6.91744 31.53109,27.37526 27.41363,49.08656 -3.03037,15.9791 -13.93378,28.0125 -29.83463,32.9267 -5.88184,1.8178 -17.28109,2.5404 -21.14467,1.3403 z m 19.60112,-15.2826 c 5.38494,-2.4455 11.13644,-8.2943 13.77111,-14.0042 3.20442,-6.9445 3.03602,-20.8114 -0.33282,-27.4061 -2.83504,-5.5498 -9.62187,-12.193 -14.56767,-14.2595 -3.92757,-1.6411 -13.42291,-1.8717 -18.3913,-0.4468 -5.33793,1.5309 -10.63965,5.7367 -14.74432,11.6965 -3.61992,5.2559 -3.78714,5.8671 -4.16257,15.2142 -0.37089,9.2341 -0.23507,10.0457 2.62316,15.6753 3.5712,7.0339 7.08182,10.5852 13.20329,13.3561 5.96401,2.6997 16.85559,2.7838 22.60112,0.1745 z m 56.63777,15.0752 c -0.98894,-0.6277 -1.20476,-9.851 -1,-42.7346 l 0.26112,-41.93415 8.25,-0.29044 8.25,-0.29045 v 34.34044 c 0,25.3759 0.31326,34.6537 1.2,35.5404 0.84539,0.8454 6.57623,1.2 19.39301,1.2 15.66716,0 18.27729,0.2197 18.8,1.5818 1.05547,2.7505 0.6566,10.9686 -0.59301,12.2182 -1.38773,1.3878 -52.41272,1.7327 -54.56112,0.3688 z m 160.2587,-0.1727 c -1.03494,-1.6746 35.72156,-84.99605 37.49522,-84.99605 1.0521,0 7.42251,12.99055 20.27074,41.33605 10.30506,22.7348 18.73648,42.0848 18.73648,43 0,1.4211 -1.23744,1.6639 -8.47968,1.6639 h -8.47968 l -2.15465,-4.25 c -1.18507,-2.3375 -2.65671,-4.5806 -3.27033,-4.9846 -0.61361,-0.4041 -8.09066,-0.7347 -16.61566,-0.7347 -8.52501,0 -16.00206,0.3306 -16.61567,0.7347 -0.61362,0.404 -2.08526,2.6471 -3.27033,4.9846 l -2.15465,4.25 h -7.42066 c -4.08137,0 -7.69987,-0.4517 -8.04113,-1.0039 z m 46.93658,-24.8895 c 0.83136,-1.3452 -8.60634,-25.2158 -9.81079,-24.8143 -1.07789,0.3593 -9.62336,22.0033 -9.62336,24.3741 0,1.0174 2.23896,1.3336 9.44099,1.3336 5.19254,0 9.68946,-0.402 9.99316,-0.8934 z m 50.56586,-17.6843 v -42.57768 l 22.57096,21.22218 c 12.41403,11.6721 24.20932,23.1821 26.21176,25.5777 2.00245,2.3955 4.20252,4.3555 4.88906,4.3555 0.97016,0 1.20147,-5.6049 1.03824,-25.1582 l -0.21002,-25.15825 7.00001,-0.009 7,-0.009 0.26085,42.16685 c 0.14347,23.1918 -0.0131,42.1668 -0.34794,42.1668 -1.04277,0 -47.29164,-43.9744 -50.0439,-47.5828 -1.43352,-1.8794 -3.11833,-3.4172 -3.74402,-3.4172 -0.83002,0 -1.03847,6.8952 -0.77092,25.5 l 0.3667,25.5 h -7.11039 -7.11039 z m -65.39373,-55.25029 c -0.52952,-0.85678 3.58652,-16.94908 5.35135,-20.92196 0.9228,-2.07734 1.64889,-2.25 9.46192,-2.25 4.65433,0 8.74164,0.45178 9.08291,1.00396 0.6198,1.00287 -8.36597,17.93554 -11.27477,21.24604 -1.10011,1.25203 -3.04181,1.75 -6.82366,1.75 -2.90729,0 -5.51628,-0.37262 -5.79775,-0.82804 z m -351.60631,-53.74273 c 0,-0.31392 1.44558,-3.18029 3.2124,-6.36971 l 3.21239,-5.79895 13.53761,-1.18958 c 19.08014,-1.67661 39.87751,-5.1587 72.53761,-12.14491 7.96538,-1.70385 38.75883,-2.32639 49.48565,-1.00043 5.21711,0.6449 16.01711,2.56285 24.00001,4.26212 16.96071,3.61033 30.60787,4.48795 43.85653,2.82034 12.15405,-1.52984 21.8353,-4.68586 36.15783,-11.7872 6.325,-3.13604 11.78542,-5.83881 12.13428,-6.00616 0.67649,-0.32452 15.2881,24.73228 14.70869,25.22329 -0.61137,0.51808 -13.13802,4.37442 -21.06096,6.48363 -18.33666,4.88149 -46.09853,4.89392 -68.28202,0.0306 -38.22896,-8.38106 -45.19327,-9.28205 -67.50001,-8.73267 -15.67699,0.3861 -19.63552,0.87045 -38,4.64953 -27.82284,5.72545 -41.93873,7.92373 -58.5,9.11029 -16.19906,1.16061 -19.50001,1.23675 -19.50001,0.44984 z m 18.41123,-32.79999 c -0.60589,-1.5789 3.53739,-9.57889 6.92925,-13.37924 1.10449,-1.2375 2.82276,-2.25 3.8184,-2.25 3.65049,0 32.81764,-6.22373 49.58691,-10.58092 9.48518,-2.46456 30.18518,-8.31459 46,-13.00008 15.81483,-4.68548 31.79173,-9.4156 35.50423,-10.51138 3.7125,-1.09577 6.75,-2.3649 6.75,-2.82029 0,-0.4554 -3.4875,-2.04968 -7.75,-3.54285 -10.43249,-3.65455 -29.25044,-12.07902 -49.25001,-22.04838 -9.075,-4.52369 -20.775,-9.91202 -26,-11.97407 -5.225,-2.06204 -9.93552,-4.15608 -10.46781,-4.65341 -1.70773,-1.59556 2.4234,-7.86862 5.18189,-7.86862 3.43461,0 15.47033,5.18645 41.78593,18.00646 39.03124,19.01462 50.37539,22.84787 70.20296,23.72197 9.24226,0.40744 14.34986,0.12096 21.05175,-1.18079 12.28065,-2.38533 14.02724,-2.03795 17.35806,3.45236 4.19837,6.92032 3.86113,8.63254 -1.86277,9.45755 -17.27323,2.48965 -48.75868,10.16435 -80.25,19.56125 -60.75842,18.13008 -80.98473,23.38732 -107.25,27.87651 -19.25648,3.29127 -20.69629,3.40827 -21.33879,1.73393 z m 159.08879,-123.31518 c -26.76064,-13.52438 -44.66281,-19.26787 -65.00001,-20.8537 -4.95,-0.38599 -9.33415,-0.89697 -9.74256,-1.1355 -0.40841,-0.23853 0.16324,-2.20921 1.27033,-4.37928 1.99454,-3.90963 2.06575,-3.94558 7.81634,-3.94558 14.82464,0 35.64024,5.64726 57.06808,15.48254 16.88165,7.74859 19.26955,9.40585 22.95053,15.92819 1.72551,3.05743 3.13729,5.79079 3.13729,6.07412 0,1.32916 -3.6001,-0.14602 -17.5,-7.17079 z"
       id="path3"
       sodipodi:nodetypes="sscsscssssssssssssscssscsscsssssssssssssssssssssscssssssssssssscccssscsscsscssssssssssscssscsssssssssssssssssssssssssssssssssscccssssssssssscssssscsssssssccsssscccsssssccccssssssssscssssssssssssssssssssssssssssssssssssssssssss"
       inkscape:export-filename="ElVolcan_white.svg"
       inkscape:export-xdpi="53.040001"
       inkscape:export-ydpi="53.040001" /></g></svg>
