<?xml version="1.0" encoding="UTF-8" standalone="no"?>
<!-- Created with Inkscape (http://www.inkscape.org/) -->

<svg
   version="1.1"
   id="svg1"
   width="854.21313"
   height="427.60397"
   viewBox="0 0 854.21313 427.60398"
   sodipodi:docname="logo final Super Arte curvas.ai"
   xmlns:inkscape="http://www.inkscape.org/namespaces/inkscape"
   xmlns:sodipodi="http://sodipodi.sourceforge.net/DTD/sodipodi-0.dtd"
   xmlns="http://www.w3.org/2000/svg"
   xmlns:svg="http://www.w3.org/2000/svg">
  <defs
     id="defs1" />
  <sodipodi:namedview
     id="namedview1"
     pagecolor="#ffffff"
     bordercolor="#000000"
     borderopacity="0.25"
     inkscape:showpageshadow="2"
     inkscape:pageopacity="0.0"
     inkscape:pagecheckerboard="0"
     inkscape:deskcolor="#d1d1d1">
    <inkscape:page
       x="0"
       y="0"
       width="854.21313"
       height="427.60397"
       id="page2"
       margin="0"
       bleed="0" />
  </sodipodi:namedview>
  <g
     id="layer-MC0"
     inkscape:groupmode="layer"
     inkscape:label="Capa 1"
     transform="translate(-214.79907,-137.98147)">
    <g
       id="g22"
       inkscape:export-filename="FSA.svg"
       inkscape:export-xdpi="96"
       inkscape:export-ydpi="96"
       style="fill:#ffffff;fill-opacity:1;stroke:none">
      <path
         id="path1"
         d="m 0,0 c 0,-27.507 -22.148,-49.805 -49.469,-49.805 -27.322,0 -49.47,22.298 -49.47,49.805 0,27.507 22.148,49.805 49.47,49.805 C -22.148,49.805 0,27.507 0,0"
         style="fill:#ffffff;fill-opacity:1;fill-rule:nonzero;stroke:none"
         transform="matrix(1.3333333,0,0,-1.3333333,599.116,498.2384)" />
      <path
         id="path2"
         d="m 0,0 c 0,-8.051 -2.973,-12.083 -8.913,-16.978 -5.945,-4.894 -21.851,-7.341 -33.084,-7.341 -7.348,0 -12.752,1.356 -16.206,4.078 -3.458,2.718 -5.185,3.925 -5.185,8.494 0,9.57 6.806,14.358 20.418,14.358 H 0 Z m 31.114,93.151 c -0.333,0.313 -0.686,0.605 -1.026,0.91 4.029,3.265 7.396,6.968 10.101,11.107 5.398,8.265 8.103,17.509 8.103,27.736 0,12.4 -3.08,22.297 -9.238,29.695 -6.157,7.393 -13.45,12.776 -21.877,16.151 -8.427,3.37 -18.586,6.252 -30.466,8.648 -10.807,2.173 -18.637,4.404 -23.499,6.689 -4.861,2.284 -7.292,5.599 -7.292,9.953 0,3.476 1.509,6.362 4.538,8.646 3.024,2.285 7.343,3.428 12.964,3.428 6.047,0 10.746,-1.362 14.098,-4.08 3.348,-2.723 5.349,-6.474 5.997,-11.257 h 51.209 c -1.084,16.097 -7.672,29.204 -19.77,39.32 -12.104,10.115 -29.281,15.172 -51.534,15.172 -14.479,0 -26.901,-2.396 -37.272,-7.179 -10.372,-4.787 -18.262,-11.256 -23.661,-19.414 -5.403,-8.158 -8.102,-17.245 -8.102,-27.246 0,-11.747 2.968,-21.103 8.913,-28.063 5.94,-6.964 13.07,-12.131 21.391,-15.501 8.315,-3.375 18.637,-6.581 30.952,-9.625 11.233,-2.611 19.229,-5.059 23.984,-7.343 4.751,-2.284 7.131,-5.602 7.131,-9.952 0,-8.922 -6.482,-13.378 -19.446,-13.378 -14.909,0 -23.336,5.761 -25.281,17.294 h -51.858 c 1.067,-17.221 7.804,-30.864 20.189,-40.949 C -92.15,83.381 -99.86,69.106 -102.743,51.06 h 50.886 c 1.079,5.873 3.939,10.549 8.588,14.031 4.644,3.475 10.64,5.221 17.988,5.221 8.209,0 14.473,-2.177 18.799,-6.526 C -2.163,59.432 0,53.125 0,44.86 v -6.853 h -41.811 c -21.39,0 -35.319,-4.625 -46.662,-13.869 -11.345,-9.249 -17.016,-22.137 -17.016,-38.667 0,-15.882 5.398,-28.339 16.205,-37.364 10.801,-9.023 23.378,-13.541 42.612,-13.541 22.688,0 39.743,1.613 53.357,16.623 V -60.213 H 50.562 V 41.27 c 0,22.401 -6.482,39.696 -19.448,51.881"
         style="fill:#ffffff;fill-opacity:1;fill-rule:nonzero;stroke:none"
         transform="matrix(1.3333333,0,0,-1.3333333,355.45107,478.34013)" />
      <g
         id="g21"
         transform="translate(250.19093,-495.64839)"
         style="fill:#ffffff;fill-opacity:1;stroke:none">
        <path
           id="path3"
           d="M 0,0 H 33.93 V -7.419 H 7.883 v -19.409 h 23.819 v -7.418 H 7.883 V -60.384 H 0 Z"
           style="fill:#ffffff;fill-opacity:1;fill-rule:nonzero;stroke:none"
           transform="matrix(1.3333333,0,0,-1.3333333,221.34787,648.34893)" />
        <path
           id="path4"
           d="m 0,0 c 1.971,-2.042 4.927,-3.063 8.868,-3.063 2.455,0 4.712,0.675 6.769,2.028 2.056,1.35 3.669,3.248 4.841,5.693 1.169,2.444 1.756,5.16 1.756,8.152 v 21.306 h 7.454 V -9.015 h -5.826 l -1.457,6.211 c -1.828,-2.3 -4.112,-4.084 -6.854,-5.348 -2.742,-1.264 -5.655,-1.898 -8.739,-1.898 -5.37,0 -9.583,1.667 -12.638,5.003 -3.057,3.335 -4.584,7.937 -4.584,13.802 v 25.361 h 7.454 V 10.308 C -2.956,5.478 -1.971,2.04 0,0"
           style="fill:#ffffff;fill-opacity:1;fill-rule:nonzero;stroke:none"
           transform="matrix(1.3333333,0,0,-1.3333333,295.5484,716.84107)" />
        <path
           id="path5"
           d="m 0,0 c -2.056,2.416 -5.055,3.623 -8.997,3.623 -2.57,0 -4.898,-0.661 -6.982,-1.983 -2.086,-1.325 -3.714,-3.164 -4.884,-5.522 -1.172,-2.358 -1.757,-5.003 -1.757,-7.935 v -21.739 h -7.454 V 9.575 h 5.826 l 1.372,-6.211 c 1.827,2.3 4.097,4.083 6.811,5.349 2.712,1.264 5.754,1.897 9.125,1.897 3.37,0 6.368,-0.805 8.996,-2.415 2.627,-1.61 4.698,-3.896 6.212,-6.858 1.513,-2.962 2.271,-6.426 2.271,-10.395 V -33.556 H 3.084 V -10.61 C 3.084,-5.952 2.056,-2.415 0,0"
           style="fill:#ffffff;fill-opacity:1;fill-rule:nonzero;stroke:none"
           transform="matrix(1.3333333,0,0,-1.3333333,395.33747,684.11973)" />
        <path
           id="path6"
           d="m 0,0 c 2.884,-2.904 6.641,-4.356 11.267,-4.356 4.627,0 8.382,1.452 11.267,4.356 2.884,2.903 4.327,6.714 4.327,11.43 0,4.715 -1.443,8.525 -4.327,11.429 -2.885,2.904 -6.64,4.357 -11.267,4.357 C 6.641,27.216 2.884,25.763 0,22.859 -2.885,19.955 -4.327,16.145 -4.327,11.43 -4.327,6.714 -2.885,2.903 0,0 m -0.856,-8.238 c -3.4,1.955 -6.071,4.658 -8.012,8.109 -1.943,3.45 -2.913,7.302 -2.913,11.559 0,4.255 0.97,8.108 2.913,11.559 1.941,3.45 4.612,6.153 8.012,8.109 3.397,1.954 7.182,2.932 11.352,2.932 3.141,0 6.084,-0.56 8.825,-1.681 2.742,-1.122 5.141,-2.69 7.197,-4.702 v 25.448 h 7.455 v -63.231 h -5.827 l -1.285,5.78 c -2.056,-2.128 -4.498,-3.795 -7.326,-5.003 -2.827,-1.208 -5.841,-1.812 -9.039,-1.812 -4.17,0 -7.955,0.979 -11.352,2.933"
           style="fill:#ffffff;fill-opacity:1;fill-rule:nonzero;stroke:none"
           transform="matrix(1.3333333,0,0,-1.3333333,440.51853,715.34627)" />
        <path
           id="path7"
           d="m 0,0 c 1.484,-1.151 3.599,-1.726 6.341,-1.726 4.397,0 7.882,1.165 10.452,3.495 2.571,2.329 3.856,5.333 3.856,9.013 V 11.3 H 6.426 C 3.685,11.3 1.556,10.725 0.043,9.575 -1.472,8.424 -2.228,6.814 -2.228,4.744 -2.228,2.73 -1.486,1.149 0,0 m -5.526,13.975 c 2.883,2.357 6.782,3.536 11.695,3.536 h 14.48 v 1.294 c 0,3.623 -0.929,6.369 -2.785,8.238 -1.856,1.868 -4.498,2.804 -7.926,2.804 C 4.112,29.847 0.6,27.66 -0.6,23.291 h -7.968 c 0.742,4.082 2.756,7.332 6.041,9.747 3.284,2.416 7.467,3.623 12.551,3.623 5.426,0 9.782,-1.582 13.067,-4.744 3.284,-3.163 4.927,-7.362 4.927,-12.595 V -7.505 h -5.741 l -1.028,5.779 C 19.42,-3.968 17.179,-5.665 14.522,-6.814 11.867,-7.965 9.024,-8.54 5.998,-8.54 c -4.799,0 -8.641,1.178 -11.524,3.537 -2.885,2.357 -4.328,5.521 -4.328,9.488 0,3.968 1.443,7.13 4.328,9.49"
           style="fill:#ffffff;fill-opacity:1;fill-rule:nonzero;stroke:none"
           transform="matrix(1.3333333,0,0,-1.3333333,515.9748,718.85413)" />
        <path
           id="path8"
           d="m 0,0 c -3.428,1.926 -6.113,4.615 -8.054,8.065 -1.943,3.452 -2.913,7.332 -2.913,11.646 0,4.313 0.97,8.195 2.913,11.645 1.941,3.451 4.626,6.138 8.054,8.066 3.427,1.926 7.311,2.89 11.652,2.89 5.313,0 9.925,-1.51 13.838,-4.529 3.911,-3.019 6.469,-7.175 7.668,-12.465 h -7.625 c -0.972,3.278 -2.714,5.78 -5.226,7.505 -2.515,1.725 -5.485,2.588 -8.911,2.588 -2.8,0 -5.328,-0.677 -7.583,-2.027 -2.257,-1.353 -4.042,-3.222 -5.355,-5.608 -1.315,-2.386 -1.971,-5.076 -1.971,-8.065 0,-2.991 0.656,-5.68 1.971,-8.065 1.313,-2.387 3.098,-4.257 5.355,-5.608 2.255,-1.351 4.783,-2.026 7.583,-2.026 3.426,0 6.396,0.862 8.911,2.588 2.512,1.724 4.254,4.226 5.226,7.504 h 7.711 C 32.045,8.813 29.474,4.658 25.533,1.639 21.592,-1.38 16.965,-2.89 11.652,-2.89 7.311,-2.89 3.427,-1.926 0,0"
           style="fill:#ffffff;fill-opacity:1;fill-rule:nonzero;stroke:none"
           transform="matrix(1.3333333,0,0,-1.3333333,583.3772,726.388)" />
        <path
           id="path9"
           d="m 482.6,257.278 h 7.454 V 214.147 H 482.6 Z m -0.6,20.1 h 8.654 v -8.886 H 482 Z"
           style="fill:#ffffff;fill-opacity:1;fill-rule:nonzero;stroke:none"
           transform="matrix(1.3333333,0,0,-1.3333333,0,1014.3907)" />
        <path
           id="path10"
           d="m 0,0 c 1.371,-2.415 3.241,-4.312 5.612,-5.693 2.37,-1.38 5.041,-2.071 8.012,-2.071 2.969,0 5.64,0.691 8.011,2.071 2.37,1.381 4.241,3.278 5.612,5.693 1.371,2.415 2.057,5.09 2.057,8.022 0,2.99 -0.686,5.679 -2.057,8.066 -1.371,2.386 -3.242,4.27 -5.612,5.65 -2.371,1.38 -5.042,2.071 -8.011,2.071 -2.971,0 -5.642,-0.691 -8.012,-2.071 C 3.241,20.358 1.371,18.474 0,16.088 -1.37,13.701 -2.056,11.012 -2.056,8.022 -2.056,5.09 -1.37,2.415 0,0 m 1.757,-11.603 c -3.513,1.985 -6.27,4.703 -8.269,8.153 -2,3.45 -2.998,7.274 -2.998,11.472 0,4.198 0.998,8.023 2.998,11.473 1.999,3.451 4.756,6.168 8.269,8.152 3.513,1.984 7.468,2.976 11.867,2.976 4.397,0 8.354,-0.992 11.866,-2.976 3.514,-1.984 6.269,-4.701 8.269,-8.152 1.999,-3.45 2.999,-7.275 2.999,-11.473 0,-4.198 -1,-8.022 -2.999,-11.472 -2,-3.45 -4.755,-6.168 -8.269,-8.153 -3.512,-1.983 -7.469,-2.975 -11.866,-2.975 -4.399,0 -8.354,0.992 -11.867,2.975"
           style="fill:#ffffff;fill-opacity:1;fill-rule:nonzero;stroke:none"
           transform="matrix(1.3333333,0,0,-1.3333333,682.30693,710.80333)" />
        <path
           id="path11"
           d="m 0,0 c -2.057,2.416 -5.056,3.623 -8.997,3.623 -2.57,0 -4.899,-0.661 -6.982,-1.983 -2.086,-1.325 -3.714,-3.164 -4.884,-5.522 -1.172,-2.358 -1.757,-5.003 -1.757,-7.935 v -21.739 h -7.454 V 9.575 h 5.826 l 1.371,-6.211 c 1.827,2.3 4.098,4.083 6.812,5.349 2.711,1.264 5.753,1.897 9.125,1.897 3.369,0 6.368,-0.805 8.996,-2.415 2.627,-1.61 4.698,-3.896 6.212,-6.858 1.512,-2.962 2.27,-6.426 2.27,-10.395 V -33.556 H 3.084 V -10.61 C 3.084,-5.952 2.056,-2.415 0,0"
           style="fill:#ffffff;fill-opacity:1;fill-rule:nonzero;stroke:none"
           transform="matrix(1.3333333,0,0,-1.3333333,787.6376,684.11973)" />
        <path
           id="path12"
           d="m 0,0 c -3.342,1.667 -5.898,3.996 -7.668,6.987 -1.771,2.99 -2.657,6.411 -2.657,10.265 h 7.883 c 0,-3.623 1.256,-6.556 3.77,-8.799 2.513,-2.242 6.026,-3.364 10.539,-3.364 4.34,0 7.681,0.963 10.025,2.89 2.341,1.926 3.512,4.356 3.512,7.289 0,2.185 -0.657,3.954 -1.97,5.305 -1.315,1.351 -2.956,2.386 -4.927,3.106 -1.971,0.718 -4.699,1.479 -8.182,2.286 -4.057,0.976 -7.412,2.012 -10.068,3.105 -2.656,1.092 -4.899,2.745 -6.726,4.96 -1.829,2.213 -2.741,5.161 -2.741,8.842 0,3.334 0.798,6.282 2.398,8.842 1.599,2.558 3.942,4.572 7.026,6.038 3.085,1.467 6.797,2.2 11.139,2.2 6.397,0 11.366,-1.654 14.908,-4.96 3.541,-3.307 5.312,-7.751 5.312,-13.328 h -7.882 c 0,3.162 -1.101,5.736 -3.299,7.721 -2.2,1.984 -5.269,2.975 -9.211,2.975 -4.112,0 -7.226,-0.834 -9.339,-2.501 -2.114,-1.669 -3.17,-3.825 -3.17,-6.469 0,-2.071 0.642,-3.74 1.928,-5.003 1.285,-1.266 2.898,-2.258 4.841,-2.977 1.941,-0.72 4.511,-1.453 7.711,-2.199 4.34,-1.035 7.84,-2.086 10.496,-3.149 2.656,-1.065 4.927,-2.747 6.811,-5.046 1.885,-2.301 2.828,-5.378 2.828,-9.231 0,-3.45 -0.857,-6.57 -2.571,-9.359 C 29.003,3.636 26.546,1.451 23.348,-0.13 20.148,-1.711 16.35,-2.502 11.953,-2.502 7.326,-2.502 3.341,-1.668 0,0"
           style="fill:#ffffff;fill-opacity:1;fill-rule:nonzero;stroke:none"
           transform="matrix(1.3333333,0,0,-1.3333333,230.77307,849.58853)" />
        <path
           id="path13"
           d="m 0,0 c 1.971,-2.042 4.927,-3.063 8.868,-3.063 2.455,0 4.712,0.675 6.769,2.028 2.056,1.35 3.669,3.248 4.841,5.693 1.169,2.444 1.756,5.16 1.756,8.152 v 21.306 h 7.454 V -9.015 h -5.826 l -1.457,6.211 c -1.828,-2.3 -4.112,-4.084 -6.854,-5.348 -2.742,-1.264 -5.655,-1.898 -8.739,-1.898 -5.37,0 -9.583,1.667 -12.638,5.003 -3.057,3.335 -4.584,7.937 -4.584,13.802 v 25.361 h 7.454 V 10.308 C -2.956,5.478 -1.971,2.04 0,0"
           style="fill:#ffffff;fill-opacity:1;fill-rule:nonzero;stroke:none"
           transform="matrix(1.3333333,0,0,-1.3333333,306.4,839.52467)" />
        <path
           id="path14"
           d="m 0,0 c 2.883,-2.904 6.64,-4.356 11.267,-4.356 4.627,0 8.382,1.452 11.267,4.356 2.883,2.903 4.327,6.714 4.327,11.43 0,4.715 -1.444,8.525 -4.327,11.429 -2.885,2.904 -6.64,4.357 -11.267,4.357 C 6.64,27.216 2.883,25.763 0,22.859 -2.885,19.955 -4.327,16.145 -4.327,11.43 -4.327,6.714 -2.885,2.903 0,0 m 3.213,-9.489 c -2.742,1.122 -5.141,2.688 -7.197,4.702 v -21.997 h -7.454 v 59.779 h 5.826 l 1.285,-5.779 c 2.056,2.127 4.498,3.796 7.326,5.003 2.827,1.208 5.839,1.811 9.039,1.811 4.169,0 7.954,-0.978 11.353,-2.932 3.398,-1.956 6.068,-4.659 8.011,-8.109 1.941,-3.451 2.913,-7.304 2.913,-11.559 0,-4.257 -0.972,-8.109 -2.913,-11.559 -1.943,-3.451 -4.613,-6.154 -8.011,-8.109 -3.399,-1.954 -7.184,-2.933 -11.353,-2.933 -3.142,0 -6.083,0.561 -8.825,1.682"
           style="fill:#ffffff;fill-opacity:1;fill-rule:nonzero;stroke:none"
           transform="matrix(1.3333333,0,0,-1.3333333,381.342,838.02987)" />
        <path
           id="path15"
           d="m 0,0 c -0.686,3.565 -2.285,6.47 -4.798,8.713 -2.514,2.243 -5.741,3.364 -9.682,3.364 -3.77,0 -6.983,-1.093 -9.639,-3.278 C -26.775,6.613 -28.476,3.68 -29.217,0 Z m -25.918,-23.377 c -3.457,1.955 -6.156,4.658 -8.097,8.109 -1.943,3.451 -2.913,7.302 -2.913,11.559 0,4.255 0.97,8.108 2.913,11.56 1.941,3.45 4.626,6.152 8.054,8.108 3.427,1.954 7.253,2.933 11.481,2.933 4.169,0 7.954,-0.964 11.353,-2.89 3.398,-1.928 6.053,-4.615 7.968,-8.065 1.913,-3.451 2.87,-7.363 2.87,-11.732 0,-0.69 -0.057,-1.553 -0.171,-2.588 h -36.929 c 0.571,-3.968 2.242,-7.146 5.013,-9.532 2.77,-2.387 6.24,-3.58 10.41,-3.58 2.969,0 5.484,0.517 7.54,1.553 2.056,1.035 3.798,2.731 5.226,5.089 h 7.797 c -1.828,-4.313 -4.47,-7.634 -7.925,-9.963 -3.457,-2.33 -7.698,-3.494 -12.724,-3.494 -4.455,0 -8.411,0.979 -11.866,2.933"
           style="fill:#ffffff;fill-opacity:1;fill-rule:nonzero;stroke:none"
           transform="matrix(1.3333333,0,0,-1.3333333,488.67013,817.84493)" />
        <path
           id="path16"
           d="M 0,0 H 5.826 L 7.197,-6.297 C 10.51,-2.1 15.251,0 21.42,0 h 4.113 v -7.332 h -4.799 c -4.34,0 -7.639,-1.251 -9.895,-3.753 -2.257,-2.501 -3.385,-6.11 -3.385,-10.825 V -43.131 H 0 Z"
           style="fill:#ffffff;fill-opacity:1;fill-rule:nonzero;stroke:none"
           transform="matrix(1.3333333,0,0,-1.3333333,515.17413,794.0364)" />
        <path
           id="path17"
           d="M 0,0 -11.396,28.897 -22.791,0 Z m -15.08,38.904 h 7.626 L 17.308,-21.479 H 8.739 L 3.085,-7.591 H -25.79 l -5.654,-13.888 h -8.398 z"
           style="fill:#ffffff;fill-opacity:1;fill-rule:nonzero;stroke:none"
           transform="matrix(1.3333333,0,0,-1.3333333,632.26787,822.90493)" />
        <path
           id="path18"
           d="M 0,0 H 5.826 L 7.197,-6.297 C 10.509,-2.1 15.251,0 21.42,0 h 4.112 v -7.332 h -4.798 c -4.341,0 -7.64,-1.251 -9.896,-3.753 -2.257,-2.501 -3.384,-6.11 -3.384,-10.825 V -43.131 H 0 Z"
           style="fill:#ffffff;fill-opacity:1;fill-rule:nonzero;stroke:none"
           transform="matrix(1.3333333,0,0,-1.3333333,667.68187,794.0364)" />
        <path
           id="path19"
           d="M 0,0 C -2.885,2.903 -4.327,6.973 -4.327,12.206 V 31.96 h -8.996 v 6.814 h 9.082 L -3.47,50.075 H 3.128 V 38.774 H 18.293 V 31.96 H 3.128 V 12.378 C 3.128,9.215 3.941,6.8 5.569,5.133 7.197,3.464 9.524,2.631 12.553,2.631 H 18.55 V -4.356 H 12.038 C 6.897,-4.356 2.884,-2.905 0,0"
           style="fill:#ffffff;fill-opacity:1;fill-rule:nonzero;stroke:none"
           transform="matrix(1.3333333,0,0,-1.3333333,724.62853,845.7356)" />
        <path
           id="path20"
           d="m 0,0 c -0.685,3.565 -2.285,6.47 -4.798,8.713 -2.514,2.243 -5.74,3.364 -9.681,3.364 -3.771,0 -6.984,-1.093 -9.64,-3.278 C -26.774,6.613 -28.475,3.68 -29.217,0 Z m -25.918,-23.377 c -3.457,1.955 -6.155,4.658 -8.097,8.109 -1.942,3.451 -2.913,7.302 -2.913,11.559 0,4.255 0.971,8.108 2.913,11.56 1.942,3.45 4.627,6.152 8.054,8.108 3.428,1.954 7.254,2.933 11.482,2.933 4.168,0 7.953,-0.964 11.352,-2.89 3.398,-1.928 6.054,-4.615 7.969,-8.065 1.913,-3.451 2.87,-7.363 2.87,-11.732 0,-0.69 -0.058,-1.553 -0.172,-2.588 h -36.928 c 0.571,-3.968 2.242,-7.146 5.012,-9.532 2.771,-2.387 6.24,-3.58 10.41,-3.58 2.97,0 5.484,0.517 7.54,1.553 2.057,1.035 3.798,2.731 5.227,5.089 h 7.797 c -1.828,-4.313 -4.47,-7.634 -7.925,-9.963 -3.457,-2.33 -7.698,-3.494 -12.724,-3.494 -4.456,0 -8.412,0.979 -11.867,2.933"
           style="fill:#ffffff;fill-opacity:1;fill-rule:nonzero;stroke:none"
           transform="matrix(1.3333333,0,0,-1.3333333,808.53867,817.84493)" />
        <path
           id="path21"
           d="m 0,0 -6.902,5.387 -10.275,-15.445 4.903,-4.387 z"
           style="fill:#ffffff;fill-opacity:1;fill-rule:nonzero;stroke:none"
           transform="matrix(1.3333333,0,0,-1.3333333,718.26653,640.81253)" />
      </g>
    </g>
  </g>
</svg>
