<?xml version="1.0" encoding="UTF-8" standalone="no"?>
<svg
   version="1.1"
   id="Capa_1"
   x="0px"
   y="0px"
   width="66.779045"
   height="57.132797"
   viewBox="0 0 66.779044 57.132796"
   xml:space="preserve"
   sodipodi:docname="HEADER-logo.svg"
   inkscape:version="1.4.3 (0d15f75, 2025-12-25)"
   xmlns:inkscape="http://www.inkscape.org/namespaces/inkscape"
   xmlns:sodipodi="http://sodipodi.sourceforge.net/DTD/sodipodi-0.dtd"
   xmlns="http://www.w3.org/2000/svg"
   xmlns:svg="http://www.w3.org/2000/svg"><defs
   id="defs32" /><sodipodi:namedview
   id="namedview32"
   pagecolor="#ffffff"
   bordercolor="#000000"
   borderopacity="0.25"
   inkscape:showpageshadow="2"
   inkscape:pageopacity="0.0"
   inkscape:pagecheckerboard="0"
   inkscape:deskcolor="#d1d1d1"
   inkscape:zoom="7.2921048"
   inkscape:cx="37.506318"
   inkscape:cy="38.809097"
   inkscape:window-width="1366"
   inkscape:window-height="686"
   inkscape:window-x="0"
   inkscape:window-y="30"
   inkscape:window-maximized="1"
   inkscape:current-layer="Capa_1"><inkscape:page
     x="0"
     y="0"
     width="66.779045"
     height="57.132797"
     id="page2"
     margin="0"
     bleed="0" /></sodipodi:namedview> <g
   id="g32"
   style="fill:#ffffff;fill-opacity:1"
   inkscape:export-filename="JuanaKoslay_white.png"
   inkscape:export-xdpi="96"
   inkscape:export-ydpi="96"
   transform="translate(-4.1170002,-3.5232006)"> <g
   id="g26"
   style="fill:#ffffff;fill-opacity:1"> <path
   fill="#FFFFFF"
   d="m 4.592,43.695 h 0.786 l 1.94,4.919 1.934,-4.919 h 0.785 v 5.611 H 9.504 v -4.85 H 9.488 L 7.57,49.306 H 7.068 L 5.144,44.456 H 5.126 v 4.85 H 4.592 Z"
   id="path1"
   style="fill:#ffffff;fill-opacity:1" /> <path
   fill="#FFFFFF"
   d="m 14.59,49.306 h -0.455 v -0.732 h -0.016 c -0.26,0.543 -0.795,0.849 -1.4,0.849 -1.021,0 -1.422,-0.598 -1.422,-1.54 V 45.25 h 0.496 v 2.641 c 0.021,0.73 0.297,1.116 1.084,1.116 0.85,0 1.217,-0.802 1.217,-1.627 v -2.13 h 0.496 z"
   id="path2"
   style="fill:#ffffff;fill-opacity:1" /> <path
   fill="#FFFFFF"
   d="m 15.76,45.25 h 0.494 v 0.7 h 0.016 c 0.182,-0.487 0.723,-0.817 1.297,-0.817 1.141,0 1.486,0.597 1.486,1.563 v 2.61 h -0.497 v -2.531 c 0,-0.699 -0.228,-1.226 -1.028,-1.226 -0.785,0 -1.258,0.597 -1.273,1.391 v 2.366 H 15.76 Z"
   id="path3"
   style="fill:#ffffff;fill-opacity:1" /> <path
   fill="#FFFFFF"
   d="m 20.225,43.695 h 0.492 v 0.793 h -0.492 z m 0,1.555 h 0.492 v 4.056 h -0.492 z"
   id="path4"
   style="fill:#ffffff;fill-opacity:1" /> <path
   fill="#FFFFFF"
   d="m 24.758,46.524 c -0.135,-0.605 -0.506,-0.975 -1.148,-0.975 -0.951,0 -1.422,0.865 -1.422,1.729 0,0.864 0.471,1.729 1.422,1.729 0.611,0 1.116,-0.479 1.18,-1.154 h 0.492 c -0.135,0.973 -0.77,1.571 -1.672,1.571 -1.244,0 -1.918,-0.982 -1.918,-2.146 0,-1.163 0.674,-2.145 1.918,-2.145 0.863,0 1.531,0.464 1.641,1.391 z"
   id="path5"
   style="fill:#ffffff;fill-opacity:1" /> <path
   fill="#FFFFFF"
   d="m 26.221,43.695 h 0.494 v 0.793 h -0.494 z m 0,1.555 h 0.494 v 4.056 h -0.494 z"
   id="path6"
   style="fill:#ffffff;fill-opacity:1" /> <path
   fill="#FFFFFF"
   d="m 27.879,45.25 h 0.457 v 0.771 h 0.014 c 0.229,-0.551 0.795,-0.888 1.447,-0.888 1.233,0 1.822,0.998 1.822,2.145 0,1.147 -0.589,2.146 -1.822,2.146 -0.604,0 -1.195,-0.306 -1.406,-0.888 h -0.016 v 2.27 h -0.496 z m 1.918,0.3 c -1.094,0 -1.422,0.809 -1.422,1.729 0,0.841 0.369,1.729 1.422,1.729 0.943,0 1.328,-0.888 1.328,-1.729 0,-0.842 -0.385,-1.729 -1.328,-1.729 z"
   id="path7"
   style="fill:#ffffff;fill-opacity:1" /> <path
   fill="#FFFFFF"
   d="m 32.55,46.493 c 0.046,-0.951 0.714,-1.359 1.642,-1.359 0.715,0 1.494,0.219 1.494,1.304 v 2.154 c 0,0.189 0.094,0.299 0.289,0.299 0.057,0 0.119,-0.016 0.158,-0.032 v 0.418 c -0.111,0.023 -0.189,0.031 -0.32,0.031 -0.505,0 -0.584,-0.284 -0.584,-0.708 h -0.016 c -0.346,0.527 -0.698,0.826 -1.479,0.826 -0.744,0 -1.359,-0.37 -1.359,-1.188 0,-1.139 1.109,-1.179 2.178,-1.304 0.408,-0.047 0.637,-0.103 0.637,-0.549 0,-0.669 -0.479,-0.834 -1.061,-0.834 -0.613,0 -1.07,0.282 -1.086,0.943 H 32.55 Z m 2.639,0.597 h -0.016 c -0.063,0.117 -0.281,0.156 -0.416,0.18 -0.842,0.149 -1.887,0.142 -1.887,0.935 0,0.496 0.44,0.802 0.904,0.802 0.754,0 1.422,-0.479 1.414,-1.273 V 47.09 Z"
   id="path8"
   style="fill:#ffffff;fill-opacity:1" /> <path
   fill="#FFFFFF"
   d="m 36.936,43.695 h 0.496 v 5.611 h -0.496 z"
   id="path9"
   style="fill:#ffffff;fill-opacity:1" /> <path
   fill="#FFFFFF"
   d="m 38.601,43.695 h 0.495 v 0.793 h -0.495 z m 0,1.555 h 0.495 v 4.056 h -0.495 z"
   id="path10"
   style="fill:#ffffff;fill-opacity:1" /> <path
   fill="#FFFFFF"
   d="m 43.836,49.306 h -0.455 v -0.771 h -0.018 c -0.211,0.527 -0.855,0.888 -1.443,0.888 -1.234,0 -1.824,-0.998 -1.824,-2.146 0,-1.148 0.59,-2.145 1.824,-2.145 0.605,0 1.193,0.306 1.406,0.888 h 0.016 v -2.326 h 0.494 z M 41.92,49.007 c 1.052,0 1.422,-0.888 1.422,-1.729 0,-0.842 -0.37,-1.729 -1.422,-1.729 -0.942,0 -1.328,0.887 -1.328,1.729 0,0.841 0.386,1.729 1.328,1.729 z"
   id="path11"
   style="fill:#ffffff;fill-opacity:1" /> <path
   fill="#FFFFFF"
   d="m 44.975,46.493 c 0.049,-0.951 0.717,-1.359 1.644,-1.359 0.716,0 1.493,0.219 1.493,1.304 v 2.154 c 0,0.189 0.094,0.299 0.289,0.299 0.057,0 0.119,-0.016 0.158,-0.032 v 0.418 c -0.109,0.023 -0.189,0.031 -0.322,0.031 -0.502,0 -0.58,-0.284 -0.58,-0.708 h -0.018 c -0.346,0.527 -0.697,0.826 -1.477,0.826 -0.746,0 -1.359,-0.37 -1.359,-1.188 0,-1.139 1.109,-1.179 2.176,-1.304 0.408,-0.047 0.639,-0.103 0.639,-0.549 0,-0.669 -0.48,-0.834 -1.063,-0.834 -0.613,0 -1.07,0.282 -1.084,0.943 h -0.496 z m 2.642,0.597 H 47.6 c -0.063,0.117 -0.281,0.156 -0.415,0.18 -0.843,0.149 -1.888,0.142 -1.888,0.935 0,0.496 0.441,0.802 0.905,0.802 0.755,0 1.423,-0.479 1.415,-1.273 z"
   id="path12"
   style="fill:#ffffff;fill-opacity:1" /> <path
   fill="#FFFFFF"
   d="m 52.854,49.306 h -0.456 v -0.771 h -0.015 c -0.214,0.527 -0.857,0.888 -1.448,0.888 -1.232,0 -1.82,-0.998 -1.82,-2.146 0,-1.148 0.588,-2.145 1.82,-2.145 0.605,0 1.195,0.306 1.408,0.888 h 0.016 v -2.326 h 0.495 z m -1.918,-0.299 c 1.055,0 1.424,-0.888 1.424,-1.729 0,-0.842 -0.369,-1.729 -1.424,-1.729 -0.941,0 -1.326,0.887 -1.326,1.729 -10e-4,0.841 0.384,1.729 1.326,1.729 z"
   id="path13"
   style="fill:#ffffff;fill-opacity:1" /> <path
   fill="#FFFFFF"
   d="m 59.623,49.306 h -0.455 v -0.771 h -0.016 c -0.212,0.527 -0.857,0.888 -1.446,0.888 -1.235,0 -1.823,-0.998 -1.823,-2.146 0,-1.148 0.588,-2.145 1.823,-2.145 0.604,0 1.194,0.306 1.405,0.888 h 0.017 v -2.326 h 0.495 z m -1.917,-0.299 c 1.054,0 1.422,-0.888 1.422,-1.729 0,-0.842 -0.368,-1.729 -1.422,-1.729 -0.942,0 -1.327,0.887 -1.327,1.729 0,0.841 0.385,1.729 1.327,1.729 z"
   id="path14"
   style="fill:#ffffff;fill-opacity:1" /> <path
   fill="#FFFFFF"
   d="m 61.104,47.412 c 0.01,0.724 0.387,1.595 1.338,1.595 0.722,0 1.115,-0.424 1.273,-1.037 h 0.493 c -0.212,0.919 -0.745,1.454 -1.767,1.454 -1.29,0 -1.832,-0.991 -1.832,-2.146 0,-1.069 0.542,-2.145 1.832,-2.145 1.305,0 1.822,1.139 1.783,2.279 z m 2.626,-0.417 c -0.025,-0.746 -0.488,-1.446 -1.289,-1.446 -0.809,0 -1.258,0.707 -1.338,1.446 z"
   id="path15"
   style="fill:#ffffff;fill-opacity:1" /> <path
   fill="#FFFFFF"
   d="m 8.676,57.146 c 0,1.405 -0.719,2.115 -2.193,2.115 -1.658,0 -2.193,-0.957 -2.193,-2.352 v -0.272 h 1.534 v 0.579 c 0,0.413 0.229,0.641 0.633,0.641 0.377,0 0.589,-0.21 0.589,-0.815 v -4.178 h 1.631 v 4.282 z"
   id="path16"
   style="fill:#ffffff;fill-opacity:1" /> <path
   fill="#FFFFFF"
   d="m 14.166,59.13 h -1.447 v -0.624 h -0.02 c -0.279,0.465 -0.858,0.755 -1.385,0.755 -1.309,0 -1.686,-0.755 -1.686,-1.948 v -2.739 h 1.492 v 2.642 c 0,0.606 0.264,0.816 0.738,0.816 0.324,0 0.814,-0.211 0.814,-1.018 v -2.441 h 1.492 v 4.557 z"
   id="path17"
   style="fill:#ffffff;fill-opacity:1" /> <path
   fill="#FFFFFF"
   d="m 15.023,55.979 c 0.025,-0.597 0.305,-0.983 0.711,-1.221 0.404,-0.228 0.928,-0.315 1.447,-0.315 1.08,0 2.125,0.236 2.125,1.527 v 1.992 c 0,0.385 0,0.807 0.174,1.167 h -1.5 c -0.055,-0.141 -0.07,-0.282 -0.089,-0.431 -0.386,0.404 -0.956,0.562 -1.499,0.562 -0.871,0 -1.553,-0.439 -1.553,-1.378 0,-1.483 1.613,-1.368 2.648,-1.58 0.254,-0.052 0.395,-0.14 0.395,-0.422 0,-0.341 -0.412,-0.473 -0.72,-0.473 -0.412,0 -0.675,0.185 -0.745,0.571 h -1.394 z m 1.93,2.36 c 0.711,0 0.947,-0.403 0.912,-1.343 -0.209,0.132 -0.596,0.158 -0.922,0.247 -0.332,0.078 -0.613,0.219 -0.613,0.579 0,0.369 0.289,0.517 0.623,0.517 z"
   id="path18"
   style="fill:#ffffff;fill-opacity:1" /> <path
   fill="#FFFFFF"
   d="m 20.201,54.574 h 1.449 v 0.624 h 0.014 c 0.273,-0.466 0.887,-0.754 1.434,-0.754 1.516,0 1.639,1.105 1.639,1.763 v 2.923 h -1.491 v -2.203 c 0,-0.623 0.069,-1.255 -0.745,-1.255 -0.563,0 -0.808,0.475 -0.808,0.975 v 2.484 h -1.491 v -4.557 z"
   id="path19"
   style="fill:#ffffff;fill-opacity:1" /> <path
   fill="#FFFFFF"
   d="m 25.576,55.979 c 0.025,-0.597 0.305,-0.983 0.709,-1.221 0.404,-0.228 0.93,-0.315 1.449,-0.315 1.078,0 2.123,0.236 2.123,1.527 v 1.992 c 0,0.385 0,0.807 0.176,1.167 h -1.502 c -0.053,-0.141 -0.068,-0.282 -0.088,-0.431 -0.385,0.404 -0.955,0.562 -1.5,0.562 -0.869,0 -1.553,-0.439 -1.553,-1.378 0,-1.483 1.615,-1.368 2.65,-1.58 0.254,-0.052 0.395,-0.14 0.395,-0.422 0,-0.341 -0.412,-0.473 -0.721,-0.473 -0.412,0 -0.676,0.185 -0.744,0.571 h -1.394 z m 1.93,2.36 c 0.711,0 0.947,-0.403 0.912,-1.343 -0.209,0.132 -0.596,0.158 -0.922,0.247 -0.332,0.078 -0.615,0.219 -0.615,0.579 0,0.369 0.291,0.517 0.625,0.517 z"
   id="path20"
   style="fill:#ffffff;fill-opacity:1" /> <path
   fill="#FFFFFF"
   d="m 33.459,52.864 h 1.633 v 2.404 l 2.063,-2.404 h 2.025 l -2.314,2.466 2.605,3.801 H 37.444 L 35.758,56.498 35.092,57.2 v 1.931 h -1.633 z"
   id="path21"
   style="fill:#ffffff;fill-opacity:1" /> <path
   fill="#FFFFFF"
   d="m 41.674,54.444 c 1.41,0 2.404,1.043 2.404,2.412 0,1.369 -0.994,2.405 -2.404,2.405 -1.416,0 -2.398,-1.036 -2.398,-2.405 -0.001,-1.369 0.982,-2.412 2.398,-2.412 z m 0,3.676 c 0.691,0 0.912,-0.684 0.912,-1.264 0,-0.579 -0.221,-1.272 -0.912,-1.272 -0.695,0 -0.906,0.693 -0.906,1.272 0,0.58 0.211,1.264 0.906,1.264 z"
   id="path22"
   style="fill:#ffffff;fill-opacity:1" /> <path
   fill="#FFFFFF"
   d="m 45.886,57.629 c 0,0.227 0.098,0.394 0.247,0.509 0.139,0.104 0.342,0.157 0.553,0.157 0.289,0 0.699,-0.123 0.699,-0.482 0,-0.351 -0.463,-0.421 -0.727,-0.483 -0.939,-0.237 -2.115,-0.263 -2.115,-1.492 0,-1.098 1.187,-1.394 2.08,-1.394 1.002,0 2.045,0.289 2.098,1.473 h -1.378 c 0,-0.193 -0.069,-0.316 -0.192,-0.395 -0.124,-0.079 -0.289,-0.114 -0.474,-0.114 -0.247,0 -0.642,0.026 -0.642,0.343 0,0.429 1.002,0.509 1.687,0.657 0.92,0.184 1.157,0.852 1.157,1.229 0,1.219 -1.157,1.623 -2.186,1.623 -1.08,0 -2.186,-0.36 -2.229,-1.632 h 1.422 z"
   id="path23"
   style="fill:#ffffff;fill-opacity:1" /> <path
   fill="#FFFFFF"
   d="M 49.568,52.864 H 51.06 V 59.13 H 49.568 Z"
   id="path24"
   style="fill:#ffffff;fill-opacity:1" /> <path
   fill="#FFFFFF"
   d="m 51.937,55.979 c 0.028,-0.597 0.308,-0.983 0.71,-1.221 0.406,-0.228 0.932,-0.315 1.449,-0.315 1.08,0 2.125,0.236 2.125,1.527 v 1.992 c 0,0.385 0,0.807 0.174,1.167 h -1.5 c -0.053,-0.141 -0.07,-0.282 -0.088,-0.431 -0.387,0.404 -0.957,0.562 -1.5,0.562 -0.869,0 -1.553,-0.439 -1.553,-1.378 0,-1.483 1.613,-1.368 2.65,-1.58 0.254,-0.052 0.395,-0.14 0.395,-0.422 0,-0.341 -0.412,-0.473 -0.721,-0.473 -0.412,0 -0.674,0.185 -0.745,0.571 h -1.396 z m 1.931,2.36 c 0.71,0 0.948,-0.403 0.913,-1.343 -0.212,0.132 -0.598,0.158 -0.922,0.247 -0.334,0.078 -0.613,0.219 -0.613,0.579 0,0.369 0.287,0.517 0.622,0.517 z"
   id="path25"
   style="fill:#ffffff;fill-opacity:1" /> <path
   fill="#FFFFFF"
   d="m 59.455,59.533 c -0.36,1 -0.894,1.123 -1.904,1.123 h -0.702 v -1.21 h 0.517 c 0.344,0 0.6,-0.194 0.6,-0.51 0,-0.246 -0.29,-0.948 -0.379,-1.194 l -1.176,-3.169 h 1.581 l 0.858,2.967 h 0.018 l 0.86,-2.967 h 1.526 z"
   id="path26"
   style="fill:#ffffff;fill-opacity:1" /> </g> <g
   id="g28"
   style="fill:#ffffff;fill-opacity:1"> <g
   id="g27"
   style="fill:#ffffff;fill-opacity:1"> <path
   fill="#FFFFFF"
   d="m 11.213,38.017 c -0.145,0.071 0.059,-0.02 0.109,-0.028 0.182,-0.033 0.361,-0.054 0.55,-0.051 0.767,0.009 1.513,0.291 2.224,0.633 0.264,0.127 0.898,-0.388 0.523,-0.569 -1.084,-0.523 -2.5,-0.987 -3.613,-0.449 -0.449,0.217 -0.24,0.68 0.207,0.464 z"
   id="path27"
   style="fill:#ffffff;fill-opacity:1" /> </g> </g> <g
   id="g30"
   style="fill:#ffffff;fill-opacity:1"> <g
   id="g29"
   style="fill:#ffffff;fill-opacity:1"> <path
   fill="#FFFFFF"
   d="m 12.881,32.051 c -0.164,2.439 1.988,4.363 3.955,5.345 0.459,0.229 1.295,-0.247 0.613,-0.586 -1.717,-0.857 -3.552,-2.593 -3.408,-4.704 0.031,-0.481 -1.127,-0.543 -1.16,-0.055 z"
   id="path28"
   style="fill:#ffffff;fill-opacity:1" /> </g> </g> <path
   fill-rule="evenodd"
   clip-rule="evenodd"
   fill="#FFFFFF"
   d="m 11.814,21.96 c 1.904,1.552 7.926,8.574 3.471,11.862 0.537,-1.98 -1.832,-4.056 -2.279,-4.561 -0.88,1.507 -1.701,3.633 -0.748,4.978 C 9.41,33.134 7.516,29.664 11.814,21.96 Z"
   id="path30"
   style="fill:#ffffff;fill-opacity:1" /> <path
   fill-rule="evenodd"
   clip-rule="evenodd"
   fill="#FFFFFF"
   d="m 4.117,38.842 c 1.049,-1.303 5.801,-5.428 8.057,-2.409 -1.349,-0.356 -2.75,1.262 -3.094,1.568 1.029,0.593 2.479,1.142 3.391,0.489 -0.741,1.942 -3.094,3.246 -8.354,0.352 z"
   id="path31"
   style="fill:#ffffff;fill-opacity:1" /> <path
   fill="#FFFFFF"
   d="M 70.885,38.076 C 70.838,36.196 70.63,34.328 70.292,32.479 67.475,17.809 55.647,6.226 40.834,3.938 30.561,2.351 20.129,5.396 12.207,11.733 c 0,0 0.561,1.355 0.705,1.232 6.072,-5.131 13.904,-8.092 22.184,-7.885 13.945,0.348 26.563,9.511 31.389,22.553 -2.531,-1.996 -5.461,-4.223 -8.499,-4.968 -2.413,-0.593 -4.647,0.955 -6.608,2.21 -2.186,1.398 -4.205,3.019 -6.299,4.542 -0.471,-0.453 -0.939,-0.902 -1.409,-1.342 -2.298,-2.158 -5.991,-6.746 -9.56,-6.041 -2.141,0.423 -3.893,2.189 -5.321,3.749 -0.429,0.468 -0.847,0.95 -1.255,1.437 -0.348,-3.555 -0.734,-7.155 0.582,-7.362 1.936,-0.306 4.518,0.11 5.352,-0.165 0.865,-0.287 1.352,-2.39 1.943,-3.48 0.234,-0.432 0.477,-0.575 0.751,-1.087 0.47,-0.881 0.952,-0.586 1.192,-0.744 0.238,-0.158 1.314,-0.858 -0.141,-1.794 -1.455,-0.936 -1.125,0.841 -1.727,1.099 -0.604,0.258 -0.844,1.154 -1.488,1.588 -0.504,0.34 -1.35,1.062 -2.645,2.11 -1.273,-1.454 -1.971,-0.824 -2.506,-0.84 -0.537,-0.016 -0.721,-0.473 -1.482,-0.538 -0.588,-0.05 -2.225,0.841 -2.445,0.065 -0.348,-1.21 0.285,-2.266 0.281,-3.211 -0.002,-0.536 -0.031,-2.393 -2.186,-2.393 -2.158,0 -1.906,2.032 -1.906,2.393 0.031,0.65 0.811,3.508 -0.301,3.404 -2.828,-0.284 -2.549,-0.071 -3.552,0.505 -1.103,0.634 -1.888,-0.402 -3.062,0.844 -0.456,0.494 -0.729,-0.691 -1.791,-1.7 -0.941,-1.075 -1.291,-1.748 -1.824,-3.14 -0.676,-1.925 -2.291,-0.143 -2.262,0.371 0.031,1.14 1.059,0.63 1.56,1.322 0.622,0.861 0.603,2.784 0.866,3.441 0.438,1.097 1.205,2.19 1.596,2.192 1.399,0.005 4.314,-0.247 5.891,-0.25 1.822,-0.005 3.824,4.617 2.834,8.356 -1.027,3.892 -0.488,6.889 -0.35,9.106 0.145,2.218 -0.588,3.049 -0.51,3.196 0.082,0.147 6.021,0.205 6.18,-0.037 0.102,-0.228 0.299,-1.01 0.516,-2.057 0.303,-0.11 0.617,-0.21 0.961,-0.279 2.053,-0.416 4.135,-0.67 6.23,-0.727 3.918,-0.104 7.777,0.569 11.596,1.441 3.74,0.854 7.445,1.924 11.309,1.74 0.007,0 0.037,-0.004 0.037,-0.004 4.842,-0.259 8.227,-1.877 11.505,-3.123 0.468,8.299 -2.048,16.52 -6.997,23.031 l 1.967,-0.001 c 4.82,-6.345 7.586,-14.222 7.377,-22.416 z M 45.359,37.295 c -3.061,-0.647 -6.145,-1.106 -9.273,-1.12 -1.795,-0.009 -3.588,0.115 -5.365,0.364 -0.893,0.126 -1.781,0.278 -2.664,0.458 -0.242,0.049 -0.57,0.156 -0.936,0.282 0.368,-1.98 0.717,-4.423 0.699,-6.01 -0.008,-0.66 -0.053,-1.392 -0.113,-2.155 0.713,-0.855 1.305,-1.518 1.555,-1.813 1.082,-1.283 2.453,-3.218 4.029,-3.882 1.018,-0.429 1.68,-0.004 2.57,0.554 2.271,1.425 4.236,3.453 6.188,5.289 3.244,3.052 6.527,6.432 10.279,8.932 0.399,0.301 0.834,0.621 1.285,0.927 -2.777,-0.421 -5.519,-1.247 -8.254,-1.826 z m 12.491,1.941 c -0.004,-0.002 -0.006,-0.004 -0.01,-0.007 -0.739,-0.317 -1.457,-0.682 -2.158,-1.08 -0.232,-0.16 -0.434,-0.299 -0.572,-0.386 -1.197,-0.75 -2.332,-1.597 -3.436,-2.483 -1.959,-1.575 -3.814,-3.282 -5.652,-5.004 1.617,-1.174 3.176,-2.443 4.826,-3.576 2.071,-1.423 4.303,-3.441 6.858,-2.4 2.848,1.16 5.452,3.173 7.872,5.077 0.418,0.329 1.313,0.943 1.909,1.432 0.208,0.786 0.392,1.579 0.545,2.377 0.2,1.103 0.344,2.208 0.438,3.313 -3.331,1.239 -6.963,2.514 -10.62,2.737 z"
   id="path32"
   style="fill:#ffffff;fill-opacity:1" /> </g> </svg>
