<?xml version="1.0" encoding="UTF-8" standalone="no"?>
<!-- Created with Inkscape (http://www.inkscape.org/) -->

<svg
   width="192.49577mm"
   height="120.81531mm"
   viewBox="0 0 192.49577 120.81531"
   version="1.1"
   id="svg1"
   xml:space="preserve"
   sodipodi:docname="SanLuis.svg"
   xmlns:inkscape="http://www.inkscape.org/namespaces/inkscape"
   xmlns:sodipodi="http://sodipodi.sourceforge.net/DTD/sodipodi-0.dtd"
   xmlns="http://www.w3.org/2000/svg"
   xmlns:svg="http://www.w3.org/2000/svg"><sodipodi:namedview
     id="namedview1"
     pagecolor="#ffffff"
     bordercolor="#000000"
     borderopacity="0.25"
     inkscape:showpageshadow="2"
     inkscape:pageopacity="0.0"
     inkscape:pagecheckerboard="0"
     inkscape:deskcolor="#d1d1d1"
     inkscape:document-units="mm"><inkscape:page
       x="0"
       y="0"
       width="192.49577"
       height="120.81531"
       id="page1"
       margin="0"
       bleed="0" /></sodipodi:namedview><defs
     id="defs1" /><g
     inkscape:label="Capa 1"
     inkscape:groupmode="layer"
     id="layer1"
     transform="translate(-20.129122,-110.26243)"><path
       style="fill:#ffffff;fill-opacity:1"
       d="m 39.0755,230.06542 c 0.100607,-0.55677 0.427742,-2.33753 0.726966,-3.95724 0.299225,-1.61971 0.544073,-4.03675 0.544108,-5.37121 3.4e-5,-1.33445 0.252804,-3.23945 0.561709,-4.23333 0.959389,-3.08676 1.05926,-8.57798 0.252125,-13.86251 -0.697745,-4.56832 -0.777963,-4.79839 -3.016291,-8.65072 -2.109574,-3.63075 -2.340999,-4.24641 -2.802194,-7.4547 -0.696501,-4.84519 -0.640887,-6.8523 0.255,-9.20289 1.316317,-3.45371 0.690263,-5.36381 -3.378309,-10.30725 -0.749847,-0.91109 -1.703213,-2.33558 -2.118592,-3.16555 -0.415379,-0.82996 -1.375115,-2.32083 -2.132747,-3.31304 -0.978112,-1.28096 -1.57057,-2.60451 -2.043354,-4.56489 -0.741807,-3.07585 -1.590627,-14.67258 -1.273988,-17.40544 0.21363,-1.84379 -0.156443,-3.01833 -3.317475,-10.52898 -1.308188,-3.10827 -1.287898,-3.69975 0.127537,-3.71791 0.304783,-0.004 0.233677,-0.48506 -0.232038,-1.57013 -0.500709,-1.1666 -0.725828,-2.92418 -0.88516,-6.91074 l -0.213675,-5.34625 8.728322,0.12818 8.728323,0.12818 2.026583,1.22778 c 1.114621,0.67527 2.932504,1.39243 4.039741,1.59367 1.900393,0.34541 2.060529,0.31479 2.858871,-0.54663 0.709936,-0.76604 1.036519,-0.86714 2.034173,-0.62973 1.695404,0.40345 2.229836,0.34415 6.342082,-0.70378 2.024637,-0.51594 4.878912,-1.05053 6.342832,-1.18797 l 2.661673,-0.24991 3.596298,1.91978 c 5.944387,3.17322 5.86565,3.08718 7.069277,7.72452 l 0.621042,2.39275 2.916969,0.10907 c 3.849754,0.14395 4.60016,0.7609 4.531634,3.72569 -0.02612,1.13031 0.08228,2.86671 0.240899,3.85868 0.213003,1.33207 0.144248,2.10196 -0.262998,2.94493 -0.303269,0.62774 -0.923468,2.96352 -1.37822,5.19062 -0.454752,2.2271 -1.049088,5.12601 -1.320748,6.44203 -0.27166,1.31601 -0.594698,3.01559 -0.717862,3.77684 -0.204115,1.26159 -0.291057,1.34817 -0.982321,0.97822 -0.417112,-0.22323 -0.877773,-0.26629 -1.02369,-0.0957 -0.145917,0.1706 -0.111493,5.85954 0.0765,12.64207 0.192081,6.93008 0.225472,24.7883 0.07623,40.76885 L 77.06916,231.07774 H 57.98087 38.89258 Z m 35.651518,-3.4971 c 0.444588,-5.00922 0.620852,-53.54506 0.238964,-65.80072 l -0.395734,-12.7 0.800713,-0.65887 c 0.440392,-0.36238 1.03792,-0.79162 1.32784,-0.95387 0.289919,-0.16224 0.738966,-1.35662 0.997881,-2.65417 0.258916,-1.29755 0.743233,-3.35309 1.076262,-4.56787 0.333029,-1.21479 0.705285,-3.11979 0.827236,-4.23334 0.121951,-1.11355 0.468694,-2.41904 0.770541,-2.9011 0.465853,-0.74398 0.47984,-1.20147 0.09253,-3.02656 -0.250955,-1.18255 -0.355954,-2.65173 -0.233332,-3.26484 l 0.222949,-1.11474 H 76.82796 73.203052 l -0.243438,-1.52238 c -0.133891,-0.8373 -0.520097,-2.51746 -0.858235,-3.73368 -0.557602,-2.00558 -0.787618,-2.32165 -2.472451,-3.39741 -1.02171,-0.65236 -2.902968,-1.71289 -4.180574,-2.35674 -2.297006,-1.15756 -2.3545,-1.16624 -5.153624,-0.77804 -3.019976,0.41884 -6.74315,1.31026 -8.035237,1.92384 -0.446386,0.21197 -1.569199,0.26623 -2.593682,0.12533 -1.655397,-0.22768 -1.846168,-0.17442 -2.280214,0.63661 l -0.473675,0.88507 -3.000159,-0.51812 c -2.137723,-0.36917 -3.597849,-0.88119 -5.079347,-1.78115 l -2.079188,-1.26304 H 29.71515 22.677071 v 3.84773 c 0,3.77359 0.02819,3.90126 1.463254,6.62608 1.219176,2.31492 1.357333,2.7793 0.82826,2.784 -1.738639,0.0154 -1.70768,0.46625 0.390409,5.68483 1.774707,4.41424 1.984854,5.19997 1.683075,6.29292 -0.45632,1.65266 0.21561,13.10786 0.97952,16.69905 0.379393,1.78356 0.937388,3.18763 1.609226,4.04928 0.565648,0.72545 1.620758,2.33991 2.344687,3.58767 0.72393,1.24777 2.073093,3.23559 2.99814,4.41739 0.925048,1.1818 2.015717,2.58939 2.423711,3.12797 0.415967,0.54912 0.874873,1.95226 1.044748,3.19441 0.257676,1.88417 0.175989,2.56293 -0.546673,4.5425 -0.989095,2.7094 -1.030668,3.73231 -0.333962,8.21718 0.455546,2.93247 0.773576,3.76048 2.768582,7.20811 2.162872,3.73774 2.282883,4.07973 2.971057,8.46667 0.860194,5.48351 0.919148,10.76335 0.153806,13.7745 -0.308762,1.21478 -0.706623,3.94804 -0.884136,6.07391 -0.177513,2.12587 -0.441775,4.65206 -0.587249,5.61377 l -0.264497,1.74855 H 58.120925 74.52282 Z m 61.429122,4.24118 c -2.17582,-0.39534 -3.1433,-4.46049 -1.5451,-6.49226 0.62198,-0.79072 1.06855,-0.96993 2.41695,-0.96993 2.23372,0 2.98065,0.47984 3.44787,2.21495 0.92243,3.42565 -1.06414,5.83877 -4.31972,5.24724 z m 2.2671,-1.78269 c 1.26688,-1.26688 0.42274,-4.57515 -1.16739,-4.57515 -1.04945,0 -1.9353,1.15021 -1.9353,2.51285 0,2.2009 1.78058,3.38441 3.10269,2.0623 z m -45.067907,-3.28675 c 0,-6.43452 0.677057,-6.66324 0.817263,-0.27608 l 0.103027,4.69347 2.392754,0.21255 2.392753,0.21255 -2.852898,0.0635 -2.852899,0.0635 z m 8.908407,4.52783 c -0.24296,-0.24296 -0.44174,-0.95526 -0.44174,-1.5829 0,-1.57354 0.59052,-2.02464 2.65044,-2.02464 1.6082,0 1.76695,-0.0776 1.76695,-0.86323 0,-1.25685 -1.20995,-2.20379 -2.56229,-2.0053 -0.61538,0.0903 -1.11887,0.0272 -1.11887,-0.14015 0,-0.1674 0.7336,-0.30436 1.63023,-0.30436 2.42284,0 2.78716,0.55679 2.78716,4.25963 v 3.10269 h -2.13507 c -1.17429,0 -2.33385,-0.19879 -2.57681,-0.44174 z m 3.90479,-1.49087 c -0.10074,-1.39231 -0.22261,-1.57712 -1.10731,-1.67922 -1.41146,-0.16288 -2.50299,0.52694 -2.50299,1.58185 0,1.06899 0.8601,1.63554 2.50595,1.65067 1.20623,0.0111 1.21649,-0.003 1.10435,-1.5533 z m 10.00999,-3.08537 v -5.01797 l 2.82656,0.18139 c 3.22085,0.20671 4.16764,0.89833 4.16764,3.04441 0,1.87667 -0.97984,2.78121 -3.32243,3.0671 l -2.01525,0.24595 -0.1122,1.74855 c -0.0929,1.44827 -0.23517,1.74855 -0.82826,1.74855 -0.67432,0 -0.71606,-0.29253 -0.71606,-5.01798 z m 3.99434,-0.17166 c 1.0915,-0.38049 1.35547,-0.87232 1.16611,-2.17268 -0.1159,-0.79588 -0.73846,-1.09231 -2.30755,-1.09871 l -1.38044,-0.006 v 1.59517 c 0,2.23019 0.32576,2.44744 2.52188,1.68186 z m 6.68102,1.50848 v -3.68116 h 2.02464 c 1.51654,0 2.02464,0.133 2.02464,0.52995 0,0.34667 -0.47743,0.56947 -1.38044,0.6442 l -1.38043,0.11425 -0.10692,3.03696 c -0.0834,2.36787 -0.22529,3.03696 -0.6442,3.03696 -0.43515,0 -0.53729,-0.69976 -0.53729,-3.68116 z m 18.48898,1.93261 c -0.72263,-1.69897 -1.92376,-5.09714 -1.92376,-5.44258 0,-0.0942 0.31171,-0.17119 0.69269,-0.17119 0.52366,0 0.90543,0.60634 1.56449,2.48478 0.47949,1.36663 1.03402,2.48478 1.23228,2.48478 0.19827,0 0.69522,-1.11713 1.10435,-2.48251 0.62857,-2.09773 0.87102,-2.48286 1.56422,-2.48478 l 0.82035,-0.002 -0.95696,2.66884 c -1.33602,3.72599 -1.88691,4.69348 -2.6725,4.69348 -0.46316,0 -0.91968,-0.56011 -1.42516,-1.74855 z m 8.01537,-1.93261 c 0,-3.43575 0.0491,-3.68116 0.73623,-3.68116 0.68715,0 0.73623,0.24541 0.73623,3.68116 0,3.43575 -0.0491,3.68116 -0.73623,3.68116 -0.68715,0 -0.73623,-0.24541 -0.73623,-3.68116 z m 5.60044,0.092 0.10536,-3.58913 2.39163,-0.11196 c 3.2341,-0.15139 3.68228,0.38246 3.68228,4.38607 0,2.65874 -0.0622,2.90415 -0.73623,2.90415 -0.6697,0 -0.73623,-0.24541 -0.73623,-2.7158 0,-3.03066 -0.38669,-3.67256 -2.09441,-3.47674 -1.03079,0.11819 -1.03497,0.12974 -1.1415,3.15558 -0.0969,2.75369 -0.17544,3.03696 -0.84159,3.03696 -0.69112,0 -0.72843,-0.21276 -0.62931,-3.58913 z m 10.72061,2.6422 c -0.84632,-0.84633 -0.92879,-1.16571 -0.77617,-3.00609 0.2167,-2.61308 1.06361,-3.4093 3.62638,-3.4093 1.43831,0 1.74678,0.10805 1.57635,0.55217 -0.12798,0.33351 -0.68391,0.55218 -1.40385,0.55218 -1.52024,0 -2.41043,0.97525 -2.41043,2.64077 0,1.6439 0.93292,2.51285 2.69783,2.51285 0.95588,0 1.35145,0.16162 1.35145,0.55217 0,0.41786 -0.45178,0.55218 -1.85731,0.55218 -1.50425,0 -2.03732,-0.18001 -2.80425,-0.94693 z m 7.9746,-2.73423 c 0,-3.43575 0.0491,-3.68116 0.73623,-3.68116 0.68715,0 0.73624,0.24541 0.73624,3.68116 0,3.43575 -0.0491,3.68116 -0.73624,3.68116 -0.68715,0 -0.73623,-0.24541 -0.73623,-3.68116 z m 5.59537,3.23942 c -0.24296,-0.24296 -0.44174,-1.04463 -0.44174,-1.78149 0,-1.53441 0.94604,-2.19416 3.1463,-2.19416 0.79753,0 1.27109,-0.17829 1.27109,-0.47855 0,-0.85322 -0.8526,-1.36203 -2.28232,-1.36203 -0.998,0 -1.39884,-0.15823 -1.39884,-0.55218 0,-0.77411 3.77092,-0.77894 4.4127,-0.006 0.24946,0.30059 0.54158,1.95711 0.64914,3.68116 l 0.19556,3.13464 h -2.55508 c -1.49646,0 -2.7381,-0.18302 -2.99681,-0.44174 z m 3.90807,-1.67493 c -0.0971,-0.84403 -0.31579,-1.03153 -1.31539,-1.12786 -0.82571,-0.0796 -1.26767,0.0637 -1.41982,0.46015 -0.4104,1.06949 0.14462,1.68003 1.52728,1.68003 1.22764,0 1.3159,-0.074 1.20793,-1.01232 z m -33.54095,-6.9508 c -0.14198,-0.14198 -0.25814,-0.57335 -0.25814,-0.95862 0,-0.51587 0.21829,-0.66948 0.82826,-0.58285 0.54147,0.0769 0.82826,0.37082 0.82826,0.84882 0,0.7302 -0.91006,1.18097 -1.39838,0.69265 z m 23.89858,-0.33464 c -0.31078,-0.80987 0.025,-1.27325 0.92249,-1.27325 0.55613,0 0.71087,0.20496 0.62248,0.8245 -0.14088,0.98745 -1.21818,1.30036 -1.54497,0.44875 z m -83.607443,-5.7701 c -1.466968,-0.51733 -1.422534,-0.42337 -0.920102,-1.94575 0.338682,-1.02622 0.583307,-1.2793 1.049007,-1.08529 0.33403,0.13915 1.771882,0.33561 3.195228,0.43656 2.85631,0.20259 3.64871,-0.21771 3.42224,-1.81522 -0.11631,-0.82047 -0.906732,-1.3207 -5.121543,-3.24128 -3.494133,-1.59218 -3.545962,-6.59018 -0.08545,-8.24038 1.843547,-0.87913 6.865323,-0.66905 8.145233,0.34075 0.0625,0.0493 -0.13582,0.68654 -0.44065,1.41611 -0.51148,1.22414 -0.62861,1.29822 -1.518,0.96008 -1.61127,-0.61261 -4.03891,-0.45022 -4.732855,0.31658 -0.999612,1.10456 -0.331802,1.88174 2.889798,3.36308 3.601157,1.65587 4.608397,2.7613 4.608397,5.05764 0,3.44966 -1.95887,4.90257 -6.546544,4.85563 -1.562225,-0.016 -3.337366,-0.20432 -3.944757,-0.41851 z m 10.859423,0.28178 c 0,-0.39553 2.63745,-7.39903 4.40835,-11.70595 l 1.92984,-4.69348 1.8925,8.7e-4 1.89249,8.6e-4 1.91529,4.50856 c 1.71844,4.04519 4.52674,11.4329 4.52674,11.90837 0,0.10177 -0.86223,0.13497 -1.91607,0.0738 l -1.91607,-0.11127 -0.54131,-1.74855 -0.54131,-1.74855 h -3.40289 -3.40289 l -0.61134,1.84058 -0.61134,1.84058 h -1.811 c -0.99604,0 -1.81099,-0.0746 -1.81099,-0.16579 z m 10.30724,-6.91263 c 0,-0.95157 -1.94245,-5.48249 -2.22561,-5.19142 -0.25801,0.26522 -2.19178,5.12088 -2.19178,5.50352 0,0.0771 0.99391,0.14023 2.2087,0.14023 1.50121,0 2.20869,-0.14489 2.20869,-0.45233 z m 7.36232,-1.20419 v -8.28261 h 1.58765 c 1.87853,0 2.19834,0.29485 6.18885,5.7058 l 2.71481,3.68116 0.10302,-4.69348 0.10303,-4.69348 h 1.82958 1.82958 v 8.28261 8.28261 h -1.46397 c -1.20373,0 -1.57246,-0.17996 -2.07418,-1.01232 -1.86793,-3.09891 -5.36293,-8.12664 -6.18606,-8.89895 l -0.95115,-0.89243 v 5.40185 5.40185 h -1.84058 -1.84058 z m 21.71884,0 v -8.28261 h 1.84058 1.84058 v 6.62609 6.62609 h 3.68116 3.68116 v 1.65652 1.65652 h -5.52174 -5.52174 z m 14.70695,7.4531 c -2.41174,-1.62528 -2.728,-2.67894 -2.87233,-9.56977 l -0.12914,-6.16594 h 1.87769 1.8777 v 5.54002 c 0,7.05955 0.42443,8.08027 3.35988,8.08027 0.6675,0 1.44171,-0.35073 1.99454,-0.90355 0.88424,-0.88425 0.90355,-1.02978 0.90355,-6.81015 v -5.90659 h 1.84058 1.84058 v 5.99592 c 0,5.49397 -0.0693,6.13113 -0.82826,7.61116 -1.1296,2.20292 -2.66492,2.95814 -6.01373,2.95814 -2.10878,0 -2.86038,-0.16189 -3.85106,-0.82951 z m 12.90175,-7.63716 v -8.46666 h 2.02464 2.02463 v 8.46666 8.46667 h -2.02463 -2.02464 z m 7.17826,8.0191 c -1.4673,-0.51745 -1.42277,-0.42267 -0.91766,-1.95317 0.37628,-1.14014 0.56466,-1.30705 1.23307,-1.09258 1.65115,0.5298 5.38647,0.64179 5.94501,0.17824 1.52354,-1.26442 0.0573,-3.1117 -3.2756,-4.12681 -0.78791,-0.23998 -1.98889,-0.961 -2.66884,-1.60228 -1.08247,-1.02089 -1.23627,-1.3948 -1.23627,-3.00545 0,-2.05883 0.81228,-3.41907 2.59103,-4.33889 2.05034,-1.06027 8.3852,-0.38738 7.91397,0.84062 -0.11049,0.28794 -0.30345,0.93215 -0.4288,1.43158 -0.16668,0.66409 -0.38878,0.83895 -0.82669,0.65086 -0.32933,-0.14146 -1.51028,-0.33393 -2.62432,-0.42773 -1.67934,-0.14138 -2.13701,-0.0474 -2.67772,0.55012 -1.03602,1.14478 -0.39792,1.90466 2.85572,3.40073 3.57402,1.64339 4.6084,2.76681 4.6084,5.00509 0,3.56217 -1.8507,4.95549 -6.51939,4.90818 -1.57716,-0.016 -3.36452,-0.20432 -3.97191,-0.41851 z M 91.514753,187.27195 c 0,-0.24392 20.430437,-0.36812 60.555067,-0.36812 40.12464,0 60.55508,0.1242 60.55508,0.36812 0,0.24392 -20.43044,0.36811 -60.55508,0.36811 -40.12463,0 -60.555067,-0.12419 -60.555067,-0.36811 z m -0.247576,-7.99522 c -0.282749,-0.19364 -0.340622,-0.7386 -0.167778,-1.5799 0.249975,-1.21674 0.343727,-1.2843 1.782042,-1.2843 1.558279,0 3.41882,-1.22792 3.41882,-2.25635 0,-0.25933 -0.663524,-1.97931 -1.474497,-3.82219 -0.810974,-1.84288 -2.047785,-4.9977 -2.748469,-7.01071 l -1.273972,-3.66003 2.104266,7.6e-4 2.104266,7.6e-4 1.44429,4.61843 c 0.794359,2.54014 1.584678,4.70519 1.756265,4.81124 0.411327,0.25421 1.095673,-1.46139 2.33037,-5.84206 l 1.0116,-3.58913 h 1.97439 c 1.08591,0 1.97439,0.0857 1.97439,0.19037 0,0.1047 -0.66193,2.1705 -1.47097,4.59066 -2.05097,6.13536 -4.730704,12.10114 -6.113562,13.61039 -1.082499,1.18145 -1.350916,1.28288 -3.693574,1.39585 -1.389433,0.067 -2.720478,-0.0112 -2.957877,-0.17379 z m 28.671883,-5.1926 c -3.77345,-1.35015 -5.37225,-4.10159 -5.40012,-9.29328 -0.0151,-2.80235 0.10713,-3.39762 1.09305,-5.32542 1.33486,-2.61012 3.33845,-4.01277 6.59005,-4.61348 2.32571,-0.42966 6.22204,0.0446 7.39136,0.89958 0.5363,0.39215 0.53452,0.55523 -0.0207,1.89432 -0.33413,0.80587 -0.64749,1.50882 -0.69636,1.56209 -0.0489,0.0533 -0.73059,-0.17128 -1.51494,-0.499 -0.92637,-0.38706 -2.08667,-0.54108 -3.31127,-0.43952 -3.46172,0.28707 -5.31481,2.49719 -5.31481,6.33882 0,2.42632 0.61935,4.08176 2.00617,5.36226 0.88273,0.81505 1.31965,0.92029 3.82063,0.92029 1.55316,0 3.25949,-0.13718 3.79184,-0.30485 0.90277,-0.28433 1.0051,-0.19573 1.52033,1.3164 l 0.55242,1.62125 -1.15222,0.46084 c -0.63372,0.25346 -2.56026,0.53619 -4.2812,0.62828 -2.45348,0.13129 -3.54893,0.0172 -5.07424,-0.52858 z m 16.30178,0.1427 c -0.80986,-0.30113 -1.74904,-0.88695 -2.08707,-1.30181 -0.9511,-1.16726 -1.41003,-4.05178 -1.41003,-8.8625 v -4.39927 h 2.02464 2.02463 v 4.91992 c 0,4.45056 0.0742,5.01428 0.778,5.90898 0.65624,0.83428 1.01628,0.97167 2.30072,0.87791 l 1.52273,-0.11116 0.10138,-5.79782 0.10138,-5.79783 h 1.83123 1.83123 v 7.13533 c 0,8.26301 0.46817,7.47042 -4.60145,7.79008 -2.09501,0.1321 -3.36989,0.0277 -4.41739,-0.36183 z m 16.93333,0.1873 c -1.93628,-0.46728 -2.71745,-1.09892 -3.11082,-2.51535 -0.21332,-0.76812 -0.38308,-5.15015 -0.38423,-9.91812 l -0.002,-8.54202 1.38044,-0.23288 c 0.75923,-0.12808 1.67032,-0.31241 2.02463,-0.4096 0.6005,-0.16473 0.64421,0.42053 0.64421,8.62581 0,8.06025 0.0568,8.85391 0.67318,9.41176 0.37026,0.33508 0.88654,0.60923 1.14729,0.60923 0.31201,0 0.3982,0.28317 0.25212,0.82826 -0.12208,0.45555 -0.22422,1.20098 -0.22699,1.65652 -0.005,0.88354 -0.41108,0.96584 -2.39778,0.48639 z m 8.30079,-0.11661 c -0.78016,-0.28364 -1.56129,-0.95888 -2.02464,-1.75021 -0.68195,-1.16466 -0.76575,-2.01703 -0.87251,-8.87442 l -0.11811,-7.586 1.40651,-0.23241 c 2.69636,-0.44553 2.69492,-0.44648 2.69492,1.78413 v 2.02464 h 2.39275 2.39276 v 1.65652 1.65653 h -2.39276 -2.39275 v 3.41519 c 0,4.53552 0.41932,5.19945 3.14125,4.97372 l 1.93709,-0.16064 0.21207,1.3068 c 0.11663,0.71874 0.066,1.45284 -0.11246,1.63132 -0.54393,0.54393 -4.89786,0.65154 -6.26412,0.15483 z m 13.58061,0.13442 c -3.26284,-1.07666 -3.72697,-2.17403 -3.94993,-9.33898 l -0.16895,-5.42971 h 2.07019 2.07019 v 4.91992 c 0,4.45056 0.0742,5.01428 0.77799,5.90898 0.65625,0.83428 1.01629,0.97167 2.30073,0.87791 l 1.52273,-0.11116 0.10138,-5.79782 0.10137,-5.79783 h 1.83124 1.83123 v 7.13888 c 0,6.26844 -0.0734,7.16704 -0.60195,7.36986 -1.02711,0.39414 -6.89353,0.58751 -7.88622,0.25995 z m 26.74902,-0.13963 c -1.98906,-0.63589 -2.94157,-2.02995 -2.94157,-4.30518 0,-3.0497 1.93682,-4.43402 6.20368,-4.43402 2.08264,0 2.40457,-0.09 2.40457,-0.67207 0,-0.36963 -0.40939,-1.05666 -0.90975,-1.52673 -0.82735,-0.77725 -1.14076,-0.83531 -3.4597,-0.6409 l -2.54993,0.21378 -0.16923,-1.35588 c -0.0931,-0.74574 -0.1325,-1.4023 -0.0876,-1.45904 0.28063,-0.35481 4.6956,-0.78199 6.0719,-0.5875 4.19511,0.59282 4.7855,1.71625 4.7855,9.10611 0,4.63704 -0.0785,5.34026 -0.6195,5.54785 -1.28594,0.49346 -7.29546,0.57166 -8.72834,0.11358 z m 5.59483,-4.41384 0.11219,-1.74855 h -1.83445 c -2.04874,0 -3.10079,0.70977 -2.91895,1.96928 0.1453,1.0065 1.61806,1.74442 3.2406,1.62369 1.26025,-0.0938 1.29086,-0.13409 1.40061,-1.84442 z m -19.43829,-2.44108 v -6.9505 l 1.63547,-0.41182 c 2.08428,-0.52483 7.07775,-0.5382 7.39813,-0.0198 0.13325,0.2156 0.13188,0.98042 -0.003,1.69961 -0.24179,1.28887 -0.26614,1.30428 -1.69949,1.07507 -0.7998,-0.12789 -1.86539,-0.12932 -2.36799,-0.003 l -0.91381,0.22936 v 5.66589 5.66589 h -2.02463 -2.02464 z m -76.75218,-22.66792 c -0.80985,-0.3058 -1.52197,-0.5585 -1.58249,-0.56154 -0.0605,-0.003 -0.42959,-0.70957 -0.82017,-1.57004 -0.59346,-1.30742 -0.71148,-2.42643 -0.71823,-6.81014 l -0.008,-5.24566 h 1.80446 1.80446 l 0.12815,4.93142 c 0.11073,4.26108 0.22563,5.03907 0.84533,5.72339 0.55237,0.60998 1.05995,0.76679 2.2087,0.68236 l 1.49151,-0.10963 0.10161,-5.61377 0.10162,-5.61377 h 2.01505 2.01505 v 6.95127 c 0,8.07083 0.48435,7.30071 -4.78551,7.60904 -2.27094,0.13287 -3.53277,0.0306 -4.60145,-0.37293 z m 34.15351,0.12821 c -1.0921,-0.31563 -1.16812,-0.43642 -0.96364,-1.5313 0.12209,-0.65375 0.33112,-1.31139 0.4645,-1.46142 0.13338,-0.15003 1.15297,-0.0818 2.26575,0.15159 4.90174,1.02815 5.8007,-1.45696 1.13407,-3.13505 -2.27238,-0.81714 -3.37983,-1.97869 -3.61711,-3.7938 -0.35586,-2.7222 0.98592,-4.37596 3.99719,-4.92661 1.46453,-0.26781 5.23554,0.0426 5.65873,0.46579 0.11446,0.11445 0.1005,0.78168 -0.031,1.48273 l -0.23912,1.27463 -2.50752,-0.17942 c -2.2335,-0.1598 -2.55059,-0.0989 -2.90175,0.55724 -0.50908,0.95122 0.098,1.49623 3.19211,2.86586 2.77699,1.22925 3.38416,1.99243 3.38416,4.25368 0,3.12186 -1.91324,4.41374 -6.44203,4.34988 -1.21478,-0.0171 -2.74223,-0.18534 -3.39432,-0.3738 z m 40.73299,-0.44411 c -2.28983,-1.2109 -3.4482,-3.54338 -3.41763,-6.88172 0.0433,-4.725 2.71114,-7.49737 7.17433,-7.45533 4.22622,0.0398 6.56427,2.40892 6.87193,6.96322 0.18291,2.70764 -0.35788,4.53923 -1.838,6.22499 -1.88019,2.14141 -5.91619,2.66888 -8.79063,1.14884 z m 5.5747,-3.40983 c 0.76425,-0.81351 0.89243,-1.31023 0.89243,-3.45845 0,-3.08517 -0.66928,-4.05827 -2.79121,-4.05827 -1.62848,0 -2.68949,1.07744 -3.07274,3.12033 -0.74688,3.98125 2.58964,6.93178 4.97152,4.39639 z m -94.633657,-4.01962 v -7.91449 h -2.944928 -2.944928 v -1.65652 -1.65652 h 7.914493 7.91449 v 1.64103 1.64104 l -2.85289,0.10751 -2.8529,0.10752 -0.0994,7.82246 -0.0994,7.82246 h -2.017321 -2.017316 z m 27.976807,0.96399 v -6.9505 l 1.63548,-0.41182 c 1.84102,-0.46357 6.41991,-0.54507 7.07877,-0.12598 0.2836,0.18039 0.34126,0.715 0.16814,1.55885 -0.26172,1.27563 -0.27708,1.28441 -2.27506,1.29949 -1.10636,0.008 -2.21735,0.14236 -2.46887,0.29781 -0.33131,0.20476 -0.4573,1.79794 -0.4573,5.78264 v 5.50001 h -1.84058 -1.84058 z m 11.77971,-0.22776 v -7.17826 h 2.02464 2.02464 v 7.17826 7.17826 h -2.02464 -2.02464 z m 22.08696,0.20579 c 0,-4.90426 0.12704,-7.051 0.42828,-7.23717 0.23556,-0.14559 2.02608,-0.34164 3.97894,-0.43567 2.82648,-0.13611 3.79023,-0.0471 4.72534,0.43648 1.08721,0.56222 1.26109,0.56277 2.33497,0.007 0.84252,-0.43569 1.84578,-0.56128 3.66323,-0.45858 4.32283,0.24426 5.11562,1.77129 5.11562,9.85341 v 4.80656 h -2.01453 -2.01453 l -0.10214,-5.2066 c -0.10103,-5.15007 -0.11271,-5.21448 -1.07631,-5.93325 -0.77964,-0.58155 -1.18393,-0.65658 -2.02463,-0.37574 l -1.05047,0.3509 0.13559,5.58234 0.13559,5.58235 h -2.0682 -2.0682 v -4.57749 c 0,-2.51762 -0.16233,-5.00443 -0.36072,-5.52626 -0.4926,-1.29562 -1.92865,-1.92511 -3.13638,-1.37483 l -0.92029,0.41931 v 5.52963 5.52964 h -1.84058 -1.84058 z m -21.24768,-9.96826 c -0.84012,-0.33804 -1.37028,-1.63582 -1.14536,-2.80373 0.18454,-0.95824 1.8244,-1.76696 2.98981,-1.47446 2.11165,0.52999 2.24115,3.54022 0.18316,4.25764 -0.62489,0.21784 -1.15286,0.38557 -1.17327,0.37273 -0.0204,-0.0128 -0.40486,-0.17131 -0.85434,-0.35218 z"
       id="path1" /></g></svg>
